solid Exported from Blender-3.0.1
facet normal 0.049068 0.000000 0.998795
outer loop
vertex 0.000000 2.000000 2.000000
vertex 0.000000 -2.000000 2.000000
vertex 0.196034 -2.000000 1.990369
endloop
endfacet
facet normal 0.049068 0.000000 0.998795
outer loop
vertex 0.000000 2.000000 2.000000
vertex 0.196034 -2.000000 1.990369
vertex 0.196034 2.000000 1.990369
endloop
endfacet
facet normal 0.146731 0.000000 0.989176
outer loop
vertex 0.196034 2.000000 1.990369
vertex 0.196034 -2.000000 1.990369
vertex 0.390181 -2.000000 1.961571
endloop
endfacet
facet normal 0.146730 0.000000 0.989177
outer loop
vertex 0.196034 2.000000 1.990369
vertex 0.390181 -2.000000 1.961571
vertex 0.390181 2.000000 1.961571
endloop
endfacet
facet normal 0.242979 0.000000 0.970031
outer loop
vertex 0.390181 2.000000 1.961571
vertex 0.390181 -2.000000 1.961571
vertex 0.580569 -2.000000 1.913881
endloop
endfacet
facet normal 0.242978 -0.000000 0.970032
outer loop
vertex 0.390181 2.000000 1.961571
vertex 0.580569 -2.000000 1.913881
vertex 0.580569 2.000000 1.913881
endloop
endfacet
facet normal 0.336892 -0.000000 0.941543
outer loop
vertex 0.580569 2.000000 1.913881
vertex 0.580569 -2.000000 1.913881
vertex 0.765367 -2.000000 1.847759
endloop
endfacet
facet normal 0.336891 0.000000 0.941544
outer loop
vertex 0.580569 2.000000 1.913881
vertex 0.765367 -2.000000 1.847759
vertex 0.765367 2.000000 1.847759
endloop
endfacet
facet normal 0.427554 0.000000 0.903990
outer loop
vertex 0.765367 2.000000 1.847759
vertex 0.765367 -2.000000 1.847759
vertex 0.942793 -2.000000 1.763843
endloop
endfacet
facet normal 0.427555 0.000000 0.903989
outer loop
vertex 0.765367 2.000000 1.847759
vertex 0.942793 -2.000000 1.763843
vertex 0.942793 2.000000 1.763843
endloop
endfacet
facet normal 0.514104 0.000000 0.857728
outer loop
vertex 0.942793 2.000000 1.763843
vertex 0.942793 -2.000000 1.763843
vertex 1.111140 -2.000000 1.662939
endloop
endfacet
facet normal 0.514104 0.000000 0.857728
outer loop
vertex 0.942793 2.000000 1.763843
vertex 1.111140 -2.000000 1.662939
vertex 1.111140 2.000000 1.662939
endloop
endfacet
facet normal 0.595699 0.000000 0.803208
outer loop
vertex 1.111140 2.000000 1.662939
vertex 1.111140 -2.000000 1.662939
vertex 1.268786 -2.000000 1.546021
endloop
endfacet
facet normal 0.595699 0.000000 0.803208
outer loop
vertex 1.111140 2.000000 1.662939
vertex 1.268786 -2.000000 1.546021
vertex 1.268786 2.000000 1.546021
endloop
endfacet
facet normal 0.671559 0.000000 0.740951
outer loop
vertex 1.268786 2.000000 1.546021
vertex 1.268786 -2.000000 1.546021
vertex 1.414213 -2.000000 1.414214
endloop
endfacet
facet normal 0.671559 -0.000000 0.740951
outer loop
vertex 1.268786 2.000000 1.546021
vertex 1.414213 -2.000000 1.414214
vertex 1.414213 2.000000 1.414214
endloop
endfacet
facet normal 0.740952 -0.000000 0.671558
outer loop
vertex 1.414213 2.000000 1.414214
vertex 1.414213 -2.000000 1.414214
vertex 1.546021 -2.000000 1.268787
endloop
endfacet
facet normal 0.740952 0.000000 0.671558
outer loop
vertex 1.414213 2.000000 1.414214
vertex 1.546021 -2.000000 1.268787
vertex 1.546021 2.000000 1.268786
endloop
endfacet
facet normal 0.803207 0.000000 0.595700
outer loop
vertex 1.546021 2.000000 1.268786
vertex 1.546021 -2.000000 1.268787
vertex 1.662939 -2.000000 1.111140
endloop
endfacet
facet normal 0.803207 0.000000 0.595700
outer loop
vertex 1.546021 2.000000 1.268786
vertex 1.662939 -2.000000 1.111140
vertex 1.662939 2.000000 1.111140
endloop
endfacet
facet normal 0.857729 0.000000 0.514102
outer loop
vertex 1.662939 2.000000 1.111140
vertex 1.662939 -2.000000 1.111140
vertex 1.763842 -2.000000 0.942793
endloop
endfacet
facet normal 0.857729 -0.000000 0.514103
outer loop
vertex 1.662939 2.000000 1.111140
vertex 1.763842 -2.000000 0.942793
vertex 1.763842 2.000000 0.942794
endloop
endfacet
facet normal 0.903989 0.000000 0.427555
outer loop
vertex 1.763842 2.000000 0.942794
vertex 1.763842 -2.000000 0.942793
vertex 1.847759 -2.000000 0.765367
endloop
endfacet
facet normal 0.903989 -0.000000 0.427555
outer loop
vertex 1.763842 2.000000 0.942794
vertex 1.847759 -2.000000 0.765367
vertex 1.847759 2.000000 0.765367
endloop
endfacet
facet normal 0.941544 0.000000 0.336890
outer loop
vertex 1.847759 2.000000 0.765367
vertex 1.847759 -2.000000 0.765367
vertex 1.913881 -2.000000 0.580569
endloop
endfacet
facet normal 0.941544 0.000000 0.336890
outer loop
vertex 1.847759 2.000000 0.765367
vertex 1.913881 -2.000000 0.580569
vertex 1.913881 2.000000 0.580569
endloop
endfacet
facet normal 0.970031 0.000000 0.242980
outer loop
vertex 1.913881 2.000000 0.580569
vertex 1.913881 -2.000000 0.580569
vertex 1.961570 -2.000000 0.390181
endloop
endfacet
facet normal 0.970031 0.000000 0.242980
outer loop
vertex 1.913881 2.000000 0.580569
vertex 1.961570 -2.000000 0.390181
vertex 1.961570 2.000000 0.390181
endloop
endfacet
facet normal 0.989177 0.000000 0.146731
outer loop
vertex 1.961570 2.000000 0.390181
vertex 1.961570 -2.000000 0.390181
vertex 1.990369 -2.000000 0.196034
endloop
endfacet
facet normal 0.989177 0.000000 0.146731
outer loop
vertex 1.961570 2.000000 0.390181
vertex 1.990369 -2.000000 0.196034
vertex 1.990369 2.000000 0.196034
endloop
endfacet
facet normal 0.998795 0.000000 0.049068
outer loop
vertex 1.990369 2.000000 0.196034
vertex 1.990369 -2.000000 0.196034
vertex 2.000000 -2.000000 -0.000000
endloop
endfacet
facet normal 0.998795 0.000000 0.049068
outer loop
vertex 1.990369 2.000000 0.196034
vertex 2.000000 -2.000000 -0.000000
vertex 2.000000 2.000000 -0.000000
endloop
endfacet
facet normal 0.998795 0.000000 -0.049068
outer loop
vertex 2.000000 2.000000 -0.000000
vertex 2.000000 -2.000000 -0.000000
vertex 1.990369 -2.000000 -0.196034
endloop
endfacet
facet normal 0.998795 0.000000 -0.049068
outer loop
vertex 2.000000 2.000000 -0.000000
vertex 1.990369 -2.000000 -0.196034
vertex 1.990369 2.000000 -0.196034
endloop
endfacet
facet normal 0.989177 0.000000 -0.146731
outer loop
vertex 1.990369 2.000000 -0.196034
vertex 1.990369 -2.000000 -0.196034
vertex 1.961570 -2.000000 -0.390181
endloop
endfacet
facet normal 0.989177 0.000000 -0.146731
outer loop
vertex 1.990369 2.000000 -0.196034
vertex 1.961570 -2.000000 -0.390181
vertex 1.961570 2.000000 -0.390181
endloop
endfacet
facet normal 0.970031 0.000000 -0.242980
outer loop
vertex 1.961570 2.000000 -0.390181
vertex 1.961570 -2.000000 -0.390181
vertex 1.913880 -2.000000 -0.580570
endloop
endfacet
facet normal 0.970031 0.000000 -0.242980
outer loop
vertex 1.961570 2.000000 -0.390181
vertex 1.913880 -2.000000 -0.580570
vertex 1.913880 2.000000 -0.580569
endloop
endfacet
facet normal 0.941544 0.000000 -0.336889
outer loop
vertex 1.913880 2.000000 -0.580569
vertex 1.913880 -2.000000 -0.580570
vertex 1.847759 -2.000000 -0.765367
endloop
endfacet
facet normal 0.941544 -0.000000 -0.336889
outer loop
vertex 1.913880 2.000000 -0.580569
vertex 1.847759 -2.000000 -0.765367
vertex 1.847759 2.000000 -0.765367
endloop
endfacet
facet normal 0.903989 0.000000 -0.427555
outer loop
vertex 1.847759 2.000000 -0.765367
vertex 1.847759 -2.000000 -0.765367
vertex 1.763842 -2.000000 -0.942793
endloop
endfacet
facet normal 0.903989 -0.000000 -0.427555
outer loop
vertex 1.847759 2.000000 -0.765367
vertex 1.763842 -2.000000 -0.942793
vertex 1.763842 2.000000 -0.942793
endloop
endfacet
facet normal 0.857729 0.000000 -0.514103
outer loop
vertex 1.763842 2.000000 -0.942793
vertex 1.763842 -2.000000 -0.942793
vertex 1.662939 -2.000000 -1.111140
endloop
endfacet
facet normal 0.857728 0.000000 -0.514103
outer loop
vertex 1.763842 2.000000 -0.942793
vertex 1.662939 -2.000000 -1.111140
vertex 1.662939 2.000000 -1.111140
endloop
endfacet
facet normal 0.803208 -0.000000 -0.595699
outer loop
vertex 1.662939 2.000000 -1.111140
vertex 1.662939 -2.000000 -1.111140
vertex 1.546021 -2.000000 -1.268786
endloop
endfacet
facet normal 0.803208 0.000000 -0.595699
outer loop
vertex 1.662939 2.000000 -1.111140
vertex 1.546021 -2.000000 -1.268786
vertex 1.546021 2.000000 -1.268787
endloop
endfacet
facet normal 0.740951 0.000000 -0.671559
outer loop
vertex 1.546021 2.000000 -1.268787
vertex 1.546021 -2.000000 -1.268786
vertex 1.414213 -2.000000 -1.414214
endloop
endfacet
facet normal 0.740952 0.000000 -0.671558
outer loop
vertex 1.546021 2.000000 -1.268787
vertex 1.414213 -2.000000 -1.414214
vertex 1.414213 2.000000 -1.414214
endloop
endfacet
facet normal 0.671559 0.000000 -0.740951
outer loop
vertex 1.414213 2.000000 -1.414214
vertex 1.414213 -2.000000 -1.414214
vertex 1.268786 -2.000000 -1.546021
endloop
endfacet
facet normal 0.671559 0.000000 -0.740951
outer loop
vertex 1.414213 2.000000 -1.414214
vertex 1.268786 -2.000000 -1.546021
vertex 1.268786 2.000000 -1.546021
endloop
endfacet
facet normal 0.595699 0.000000 -0.803208
outer loop
vertex 1.268786 2.000000 -1.546021
vertex 1.268786 -2.000000 -1.546021
vertex 1.111140 -2.000000 -1.662939
endloop
endfacet
facet normal 0.595698 0.000000 -0.803208
outer loop
vertex 1.268786 2.000000 -1.546021
vertex 1.111140 -2.000000 -1.662939
vertex 1.111140 2.000000 -1.662939
endloop
endfacet
facet normal 0.514103 0.000000 -0.857728
outer loop
vertex 1.111140 2.000000 -1.662939
vertex 1.111140 -2.000000 -1.662939
vertex 0.942794 -2.000000 -1.763843
endloop
endfacet
facet normal 0.514104 0.000000 -0.857728
outer loop
vertex 1.111140 2.000000 -1.662939
vertex 0.942794 -2.000000 -1.763843
vertex 0.942794 2.000000 -1.763842
endloop
endfacet
facet normal 0.427553 0.000000 -0.903990
outer loop
vertex 0.942794 2.000000 -1.763842
vertex 0.942794 -2.000000 -1.763843
vertex 0.765367 -2.000000 -1.847759
endloop
endfacet
facet normal 0.427554 0.000000 -0.903990
outer loop
vertex 0.942794 2.000000 -1.763842
vertex 0.765367 -2.000000 -1.847759
vertex 0.765367 2.000000 -1.847759
endloop
endfacet
facet normal 0.336891 0.000000 -0.941544
outer loop
vertex 0.765367 2.000000 -1.847759
vertex 0.765367 -2.000000 -1.847759
vertex 0.580569 -2.000000 -1.913881
endloop
endfacet
facet normal 0.336892 0.000000 -0.941543
outer loop
vertex 0.765367 2.000000 -1.847759
vertex 0.580569 -2.000000 -1.913881
vertex 0.580569 2.000000 -1.913881
endloop
endfacet
facet normal 0.242980 0.000000 -0.970031
outer loop
vertex 0.580569 2.000000 -1.913881
vertex 0.580569 -2.000000 -1.913881
vertex 0.390181 -2.000000 -1.961571
endloop
endfacet
facet normal 0.242980 0.000000 -0.970031
outer loop
vertex 0.580569 2.000000 -1.913881
vertex 0.390181 -2.000000 -1.961571
vertex 0.390181 2.000000 -1.961571
endloop
endfacet
facet normal 0.146729 0.000000 -0.989177
outer loop
vertex 0.390181 2.000000 -1.961571
vertex 0.390181 -2.000000 -1.961571
vertex 0.196034 -2.000000 -1.990369
endloop
endfacet
facet normal 0.146729 -0.000000 -0.989177
outer loop
vertex 0.390181 2.000000 -1.961571
vertex 0.196034 -2.000000 -1.990369
vertex 0.196034 2.000000 -1.990369
endloop
endfacet
facet normal 0.049068 -0.000000 -0.998795
outer loop
vertex 0.196034 2.000000 -1.990369
vertex 0.196034 -2.000000 -1.990369
vertex -0.000000 -2.000000 -2.000000
endloop
endfacet
facet normal 0.049068 0.000000 -0.998795
outer loop
vertex 0.196034 2.000000 -1.990369
vertex -0.000000 -2.000000 -2.000000
vertex -0.000000 2.000000 -2.000000
endloop
endfacet
facet normal -0.049068 0.000000 -0.998795
outer loop
vertex -0.000000 2.000000 -2.000000
vertex -0.000000 -2.000000 -2.000000
vertex -0.196034 -2.000000 -1.990369
endloop
endfacet
facet normal -0.049068 -0.000000 -0.998795
outer loop
vertex -0.000000 2.000000 -2.000000
vertex -0.196034 -2.000000 -1.990369
vertex -0.196034 2.000000 -1.990369
endloop
endfacet
facet normal -0.146729 -0.000000 -0.989177
outer loop
vertex -0.196034 2.000000 -1.990369
vertex -0.196034 -2.000000 -1.990369
vertex -0.390180 -2.000000 -1.961571
endloop
endfacet
facet normal -0.146729 0.000000 -0.989177
outer loop
vertex -0.196034 2.000000 -1.990369
vertex -0.390180 -2.000000 -1.961571
vertex -0.390180 2.000000 -1.961571
endloop
endfacet
facet normal -0.242980 0.000000 -0.970031
outer loop
vertex -0.390180 2.000000 -1.961571
vertex -0.390180 -2.000000 -1.961571
vertex -0.580569 -2.000000 -1.913881
endloop
endfacet
facet normal -0.242980 0.000000 -0.970031
outer loop
vertex -0.390180 2.000000 -1.961571
vertex -0.580569 -2.000000 -1.913881
vertex -0.580569 2.000000 -1.913881
endloop
endfacet
facet normal -0.336892 0.000000 -0.941543
outer loop
vertex -0.580569 2.000000 -1.913881
vertex -0.580569 -2.000000 -1.913881
vertex -0.765367 -2.000000 -1.847759
endloop
endfacet
facet normal -0.336891 0.000000 -0.941544
outer loop
vertex -0.580569 2.000000 -1.913881
vertex -0.765367 -2.000000 -1.847759
vertex -0.765367 2.000000 -1.847759
endloop
endfacet
facet normal -0.427554 0.000000 -0.903990
outer loop
vertex -0.765367 2.000000 -1.847759
vertex -0.765367 -2.000000 -1.847759
vertex -0.942793 -2.000000 -1.763843
endloop
endfacet
facet normal -0.427553 0.000000 -0.903990
outer loop
vertex -0.765367 2.000000 -1.847759
vertex -0.942793 -2.000000 -1.763843
vertex -0.942793 2.000000 -1.763842
endloop
endfacet
facet normal -0.514104 0.000000 -0.857728
outer loop
vertex -0.942793 2.000000 -1.763842
vertex -0.942793 -2.000000 -1.763843
vertex -1.111140 -2.000000 -1.662939
endloop
endfacet
facet normal -0.514104 0.000000 -0.857728
outer loop
vertex -0.942793 2.000000 -1.763842
vertex -1.111140 -2.000000 -1.662939
vertex -1.111140 2.000000 -1.662939
endloop
endfacet
facet normal -0.595699 0.000000 -0.803208
outer loop
vertex -1.111140 2.000000 -1.662939
vertex -1.111140 -2.000000 -1.662939
vertex -1.268786 -2.000000 -1.546021
endloop
endfacet
facet normal -0.595699 -0.000000 -0.803208
outer loop
vertex -1.111140 2.000000 -1.662939
vertex -1.268786 -2.000000 -1.546021
vertex -1.268786 2.000000 -1.546021
endloop
endfacet
facet normal -0.671559 -0.000000 -0.740951
outer loop
vertex -1.268786 2.000000 -1.546021
vertex -1.268786 -2.000000 -1.546021
vertex -1.414213 -2.000000 -1.414214
endloop
endfacet
facet normal -0.671559 0.000000 -0.740951
outer loop
vertex -1.268786 2.000000 -1.546021
vertex -1.414213 -2.000000 -1.414214
vertex -1.414213 2.000000 -1.414214
endloop
endfacet
facet normal -0.740951 0.000000 -0.671559
outer loop
vertex -1.414213 2.000000 -1.414214
vertex -1.414213 -2.000000 -1.414214
vertex -1.546021 -2.000000 -1.268787
endloop
endfacet
facet normal -0.740951 0.000000 -0.671559
outer loop
vertex -1.414213 2.000000 -1.414214
vertex -1.546021 -2.000000 -1.268787
vertex -1.546021 2.000000 -1.268787
endloop
endfacet
facet normal -0.803208 0.000000 -0.595699
outer loop
vertex -1.546021 2.000000 -1.268787
vertex -1.546021 -2.000000 -1.268787
vertex -1.662939 -2.000000 -1.111141
endloop
endfacet
facet normal -0.803208 0.000000 -0.595698
outer loop
vertex -1.546021 2.000000 -1.268787
vertex -1.662939 -2.000000 -1.111141
vertex -1.662939 2.000000 -1.111141
endloop
endfacet
facet normal -0.857728 0.000000 -0.514104
outer loop
vertex -1.662939 2.000000 -1.111141
vertex -1.662939 -2.000000 -1.111141
vertex -1.763842 -2.000000 -0.942793
endloop
endfacet
facet normal -0.857728 0.000000 -0.514103
outer loop
vertex -1.662939 2.000000 -1.111141
vertex -1.763842 -2.000000 -0.942793
vertex -1.763842 2.000000 -0.942793
endloop
endfacet
facet normal -0.903989 0.000000 -0.427555
outer loop
vertex -1.763842 2.000000 -0.942793
vertex -1.763842 -2.000000 -0.942793
vertex -1.847759 -2.000000 -0.765367
endloop
endfacet
facet normal -0.903989 0.000000 -0.427555
outer loop
vertex -1.763842 2.000000 -0.942793
vertex -1.847759 -2.000000 -0.765367
vertex -1.847759 2.000000 -0.765367
endloop
endfacet
facet normal -0.941544 0.000000 -0.336889
outer loop
vertex -1.847759 2.000000 -0.765367
vertex -1.847759 -2.000000 -0.765367
vertex -1.913881 -2.000000 -0.580569
endloop
endfacet
facet normal -0.941544 0.000000 -0.336889
outer loop
vertex -1.847759 2.000000 -0.765367
vertex -1.913881 -2.000000 -0.580569
vertex -1.913881 2.000000 -0.580569
endloop
endfacet
facet normal -0.970031 0.000000 -0.242980
outer loop
vertex -1.913881 2.000000 -0.580569
vertex -1.913881 -2.000000 -0.580569
vertex -1.961570 -2.000000 -0.390181
endloop
endfacet
facet normal -0.970031 -0.000000 -0.242980
outer loop
vertex -1.913881 2.000000 -0.580569
vertex -1.961570 -2.000000 -0.390181
vertex -1.961570 2.000000 -0.390181
endloop
endfacet
facet normal -0.989177 -0.000000 -0.146730
outer loop
vertex -1.961570 2.000000 -0.390181
vertex -1.961570 -2.000000 -0.390181
vertex -1.990369 -2.000000 -0.196034
endloop
endfacet
facet normal -0.989177 0.000000 -0.146730
outer loop
vertex -1.961570 2.000000 -0.390181
vertex -1.990369 -2.000000 -0.196034
vertex -1.990369 2.000000 -0.196034
endloop
endfacet
facet normal -0.998795 0.000000 -0.049068
outer loop
vertex -1.990369 2.000000 -0.196034
vertex -1.990369 -2.000000 -0.196034
vertex -2.000000 -2.000000 0.000000
endloop
endfacet
facet normal -0.998795 0.000000 -0.049068
outer loop
vertex -1.990369 2.000000 -0.196034
vertex -2.000000 -2.000000 0.000000
vertex -2.000000 2.000000 0.000000
endloop
endfacet
facet normal -0.998795 0.000000 0.049068
outer loop
vertex -2.000000 2.000000 0.000000
vertex -2.000000 -2.000000 0.000000
vertex -1.990369 -2.000000 0.196034
endloop
endfacet
facet normal -0.998795 -0.000000 0.049068
outer loop
vertex -2.000000 2.000000 0.000000
vertex -1.990369 -2.000000 0.196034
vertex -1.990369 2.000000 0.196034
endloop
endfacet
facet normal -0.989177 -0.000000 0.146730
outer loop
vertex -1.990369 2.000000 0.196034
vertex -1.990369 -2.000000 0.196034
vertex -1.961570 -2.000000 0.390181
endloop
endfacet
facet normal -0.989177 0.000000 0.146730
outer loop
vertex -1.990369 2.000000 0.196034
vertex -1.961570 -2.000000 0.390181
vertex -1.961570 2.000000 0.390181
endloop
endfacet
facet normal -0.970031 0.000000 0.242980
outer loop
vertex -1.961570 2.000000 0.390181
vertex -1.961570 -2.000000 0.390181
vertex -1.913881 -2.000000 0.580569
endloop
endfacet
facet normal -0.970031 -0.000000 0.242980
outer loop
vertex -1.961570 2.000000 0.390181
vertex -1.913881 -2.000000 0.580569
vertex -1.913881 2.000000 0.580569
endloop
endfacet
facet normal -0.941544 -0.000000 0.336890
outer loop
vertex -1.913881 2.000000 0.580569
vertex -1.913881 -2.000000 0.580569
vertex -1.847759 -2.000000 0.765367
endloop
endfacet
facet normal -0.941544 0.000000 0.336890
outer loop
vertex -1.913881 2.000000 0.580569
vertex -1.847759 -2.000000 0.765367
vertex -1.847759 2.000000 0.765367
endloop
endfacet
facet normal -0.903990 0.000000 0.427555
outer loop
vertex -1.847759 2.000000 0.765367
vertex -1.847759 -2.000000 0.765367
vertex -1.763842 -2.000000 0.942793
endloop
endfacet
facet normal -0.903989 -0.000000 0.427555
outer loop
vertex -1.847759 2.000000 0.765367
vertex -1.763842 -2.000000 0.942793
vertex -1.763842 2.000000 0.942793
endloop
endfacet
facet normal -0.857729 -0.000000 0.514102
outer loop
vertex -1.763842 2.000000 0.942793
vertex -1.763842 -2.000000 0.942793
vertex -1.662939 -2.000000 1.111140
endloop
endfacet
facet normal -0.857729 -0.000000 0.514102
outer loop
vertex -1.763842 2.000000 0.942793
vertex -1.662939 -2.000000 1.111140
vertex -1.662939 2.000000 1.111140
endloop
endfacet
facet normal -0.803207 -0.000000 0.595700
outer loop
vertex -1.662939 2.000000 1.111140
vertex -1.662939 -2.000000 1.111140
vertex -1.546021 -2.000000 1.268787
endloop
endfacet
facet normal -0.803208 0.000000 0.595699
outer loop
vertex -1.662939 2.000000 1.111140
vertex -1.546021 -2.000000 1.268787
vertex -1.546021 2.000000 1.268787
endloop
endfacet
facet normal -0.740951 0.000000 0.671559
outer loop
vertex -1.546021 2.000000 1.268787
vertex -1.546021 -2.000000 1.268787
vertex -1.414214 -2.000000 1.414213
endloop
endfacet
facet normal -0.740950 0.000000 0.671560
outer loop
vertex -1.546021 2.000000 1.268787
vertex -1.414214 -2.000000 1.414213
vertex -1.414214 2.000000 1.414213
endloop
endfacet
facet normal -0.671559 0.000000 0.740951
outer loop
vertex -1.414214 2.000000 1.414213
vertex -1.414214 -2.000000 1.414213
vertex -1.268786 -2.000000 1.546021
endloop
endfacet
facet normal -0.671559 0.000000 0.740951
outer loop
vertex -1.414214 2.000000 1.414213
vertex -1.268786 -2.000000 1.546021
vertex -1.268786 2.000000 1.546021
endloop
endfacet
facet normal -0.595700 0.000000 0.803207
outer loop
vertex -1.268786 2.000000 1.546021
vertex -1.268786 -2.000000 1.546021
vertex -1.111140 -2.000000 1.662939
endloop
endfacet
facet normal -0.595700 0.000000 0.803207
outer loop
vertex -1.268786 2.000000 1.546021
vertex -1.111140 -2.000000 1.662939
vertex -1.111140 2.000000 1.662939
endloop
endfacet
facet normal -0.514102 0.000000 0.857729
outer loop
vertex -1.111140 2.000000 1.662939
vertex -1.111140 -2.000000 1.662939
vertex -0.942793 -2.000000 1.763843
endloop
endfacet
facet normal -0.514102 0.000000 0.857729
outer loop
vertex -1.111140 2.000000 1.662939
vertex -0.942793 -2.000000 1.763843
vertex -0.942793 2.000000 1.763843
endloop
endfacet
facet normal -0.427556 0.000000 0.903989
outer loop
vertex -0.942793 2.000000 1.763843
vertex -0.942793 -2.000000 1.763843
vertex -0.765367 -2.000000 1.847759
endloop
endfacet
facet normal -0.427556 -0.000000 0.903989
outer loop
vertex -0.942793 2.000000 1.763843
vertex -0.765367 -2.000000 1.847759
vertex -0.765367 2.000000 1.847759
endloop
endfacet
facet normal -0.336888 -0.000000 0.941545
outer loop
vertex -0.765367 2.000000 1.847759
vertex -0.765367 -2.000000 1.847759
vertex -0.580570 -2.000000 1.913881
endloop
endfacet
facet normal -0.336889 0.000000 0.941544
outer loop
vertex -0.765367 2.000000 1.847759
vertex -0.580570 -2.000000 1.913881
vertex -0.580570 2.000000 1.913881
endloop
endfacet
facet normal -0.242981 0.000000 0.970031
outer loop
vertex -0.580570 2.000000 1.913881
vertex -0.580570 -2.000000 1.913881
vertex -0.390180 -2.000000 1.961571
endloop
endfacet
facet normal -0.242982 -0.000000 0.970031
outer loop
vertex -0.580570 2.000000 1.913881
vertex -0.390180 -2.000000 1.961571
vertex -0.390180 2.000000 1.961571
endloop
endfacet
facet normal 0.000001 -1.000000 0.000000
outer loop
vertex 0.390181 -2.000000 1.961571
vertex 0.196034 -2.000000 1.990369
vertex 0.000000 -2.000000 2.000000
endloop
endfacet
facet normal 0.000000 -1.000000 0.000000
outer loop
vertex 0.000000 -2.000000 2.000000
vertex -0.196034 -2.000000 1.990369
vertex -0.390180 -2.000000 1.961571
endloop
endfacet
facet normal 0.000007 -1.000000 0.000000
outer loop
vertex -0.390180 -2.000000 1.961571
vertex -0.580570 -2.000000 1.913881
vertex -0.765367 -2.000000 1.847759
endloop
endfacet
facet normal 0.000000 -1.000000 0.000000
outer loop
vertex -0.765367 -2.000000 1.847759
vertex -0.942793 -2.000000 1.763843
vertex -1.111140 -2.000000 1.662939
endloop
endfacet
facet normal 0.000000 -1.000000 0.000000
outer loop
vertex -1.111140 -2.000000 1.662939
vertex -1.268786 -2.000000 1.546021
vertex -1.414214 -2.000000 1.414213
endloop
endfacet
facet normal 0.000005 -1.000000 0.000000
outer loop
vertex -1.414214 -2.000000 1.414213
vertex -1.546021 -2.000000 1.268787
vertex -1.662939 -2.000000 1.111140
endloop
endfacet
facet normal 0.000006 -1.000000 0.000000
outer loop
vertex -1.662939 -2.000000 1.111140
vertex -1.763842 -2.000000 0.942793
vertex -1.847759 -2.000000 0.765367
endloop
endfacet
facet normal -0.000012 -1.000000 0.000000
outer loop
vertex -1.847759 -2.000000 0.765367
vertex -1.913881 -2.000000 0.580569
vertex -1.961570 -2.000000 0.390181
endloop
endfacet
facet normal 0.000000 -1.000000 0.000000
outer loop
vertex -1.961570 -2.000000 0.390181
vertex -1.990369 -2.000000 0.196034
vertex -2.000000 -2.000000 0.000000
endloop
endfacet
facet normal -0.000012 -1.000000 0.000000
outer loop
vertex -2.000000 -2.000000 0.000000
vertex -1.990369 -2.000000 -0.196034
vertex -1.961570 -2.000000 -0.390181
endloop
endfacet
facet normal 0.000006 -1.000000 0.000000
outer loop
vertex -1.961570 -2.000000 -0.390181
vertex -1.913881 -2.000000 -0.580569
vertex -1.847759 -2.000000 -0.765367
endloop
endfacet
facet normal 0.000000 -1.000000 0.000000
outer loop
vertex -1.847759 -2.000000 -0.765367
vertex -1.763842 -2.000000 -0.942793
vertex -1.662939 -2.000000 -1.111141
endloop
endfacet
facet normal 0.000000 -1.000000 -0.000016
outer loop
vertex -1.662939 -2.000000 -1.111141
vertex -1.546021 -2.000000 -1.268787
vertex -1.414213 -2.000000 -1.414214
endloop
endfacet
facet normal 0.000000 -1.000000 0.000000
outer loop
vertex -1.414213 -2.000000 -1.414214
vertex -1.268786 -2.000000 -1.546021
vertex -1.111140 -2.000000 -1.662939
endloop
endfacet
facet normal 0.000000 -1.000000 0.000000
outer loop
vertex -1.111140 -2.000000 -1.662939
vertex -0.942793 -2.000000 -1.763843
vertex -0.765367 -2.000000 -1.847759
endloop
endfacet
facet normal 0.000000 -1.000000 0.000000
outer loop
vertex -0.765367 -2.000000 -1.847759
vertex -0.580569 -2.000000 -1.913881
vertex -0.390180 -2.000000 -1.961571
endloop
endfacet
facet normal 0.000000 -1.000000 0.000000
outer loop
vertex -0.390180 -2.000000 -1.961571
vertex -0.196034 -2.000000 -1.990369
vertex -0.000000 -2.000000 -2.000000
endloop
endfacet
facet normal 0.000000 -1.000000 0.000000
outer loop
vertex -0.000000 -2.000000 -2.000000
vertex 0.196034 -2.000000 -1.990369
vertex 0.390181 -2.000000 -1.961571
endloop
endfacet
facet normal 0.000000 -1.000000 0.000000
outer loop
vertex 0.390181 -2.000000 -1.961571
vertex 0.580569 -2.000000 -1.913881
vertex 0.765367 -2.000000 -1.847759
endloop
endfacet
facet normal 0.000000 -1.000000 0.000000
outer loop
vertex 0.765367 -2.000000 -1.847759
vertex 0.942794 -2.000000 -1.763843
vertex 1.111140 -2.000000 -1.662939
endloop
endfacet
facet normal 0.000000 -1.000000 0.000000
outer loop
vertex 1.111140 -2.000000 -1.662939
vertex 1.268786 -2.000000 -1.546021
vertex 1.414213 -2.000000 -1.414214
endloop
endfacet
facet normal 0.000000 -1.000000 -0.000008
outer loop
vertex 1.414213 -2.000000 -1.414214
vertex 1.546021 -2.000000 -1.268786
vertex 1.662939 -2.000000 -1.111140
endloop
endfacet
facet normal 0.000000 -1.000000 0.000000
outer loop
vertex 1.662939 -2.000000 -1.111140
vertex 1.763842 -2.000000 -0.942793
vertex 1.847759 -2.000000 -0.765367
endloop
endfacet
facet normal -0.000006 -1.000000 0.000000
outer loop
vertex 1.847759 -2.000000 -0.765367
vertex 1.913880 -2.000000 -0.580570
vertex 1.961570 -2.000000 -0.390181
endloop
endfacet
facet normal 0.000000 -1.000000 0.000000
outer loop
vertex 1.961570 -2.000000 -0.390181
vertex 1.990369 -2.000000 -0.196034
vertex 2.000000 -2.000000 -0.000000
endloop
endfacet
facet normal -0.000006 -1.000000 0.000000
outer loop
vertex 2.000000 -2.000000 -0.000000
vertex 1.990369 -2.000000 0.196034
vertex 1.961570 -2.000000 0.390181
endloop
endfacet
facet normal -0.000006 -1.000000 0.000000
outer loop
vertex 1.961570 -2.000000 0.390181
vertex 1.913881 -2.000000 0.580569
vertex 1.847759 -2.000000 0.765367
endloop
endfacet
facet normal 0.000000 -1.000000 0.000000
outer loop
vertex 1.847759 -2.000000 0.765367
vertex 1.763842 -2.000000 0.942793
vertex 1.662939 -2.000000 1.111140
endloop
endfacet
facet normal 0.000010 -1.000000 0.000000
outer loop
vertex 1.662939 -2.000000 1.111140
vertex 1.546021 -2.000000 1.268787
vertex 1.414213 -2.000000 1.414214
endloop
endfacet
facet normal 0.000000 -1.000000 0.000000
outer loop
vertex 1.414213 -2.000000 1.414214
vertex 1.268786 -2.000000 1.546021
vertex 1.111140 -2.000000 1.662939
endloop
endfacet
facet normal 0.000006 -1.000000 0.000000
outer loop
vertex 1.111140 -2.000000 1.662939
vertex 0.942793 -2.000000 1.763843
vertex 0.765367 -2.000000 1.847759
endloop
endfacet
facet normal 0.000007 -1.000000 0.000063
outer loop
vertex 0.765367 -2.000000 1.847759
vertex 0.580569 -2.000000 1.913881
vertex 0.390181 -2.000000 1.961571
endloop
endfacet
facet normal -0.000000 -1.000000 0.000000
outer loop
vertex 0.390181 -2.000000 1.961571
vertex 0.000000 -2.000000 2.000000
vertex -0.390180 -2.000000 1.961571
endloop
endfacet
facet normal 0.000000 -1.000000 -0.000004
outer loop
vertex -0.390180 -2.000000 1.961571
vertex -0.765367 -2.000000 1.847759
vertex -1.111140 -2.000000 1.662939
endloop
endfacet
facet normal 0.000001 -1.000000 0.000000
outer loop
vertex -1.111140 -2.000000 1.662939
vertex -1.414214 -2.000000 1.414213
vertex -1.662939 -2.000000 1.111140
endloop
endfacet
facet normal 0.000001 -1.000000 0.000000
outer loop
vertex -1.662939 -2.000000 1.111140
vertex -1.847759 -2.000000 0.765367
vertex -1.961570 -2.000000 0.390181
endloop
endfacet
facet normal 0.000000 -1.000000 0.000000
outer loop
vertex -1.961570 -2.000000 0.390181
vertex -2.000000 -2.000000 0.000000
vertex -1.961570 -2.000000 -0.390181
endloop
endfacet
facet normal -0.000001 -1.000000 -0.000002
outer loop
vertex -1.961570 -2.000000 -0.390181
vertex -1.847759 -2.000000 -0.765367
vertex -1.662939 -2.000000 -1.111141
endloop
endfacet
facet normal 0.000000 -1.000000 0.000004
outer loop
vertex -1.662939 -2.000000 -1.111141
vertex -1.414213 -2.000000 -1.414214
vertex -1.111140 -2.000000 -1.662939
endloop
endfacet
facet normal 0.000000 -1.000000 0.000000
outer loop
vertex -1.111140 -2.000000 -1.662939
vertex -0.765367 -2.000000 -1.847759
vertex -0.390180 -2.000000 -1.961571
endloop
endfacet
facet normal 0.000000 -1.000000 0.000000
outer loop
vertex -0.390180 -2.000000 -1.961571
vertex -0.000000 -2.000000 -2.000000
vertex 0.390181 -2.000000 -1.961571
endloop
endfacet
facet normal 0.000000 -1.000000 0.000000
outer loop
vertex 0.390181 -2.000000 -1.961571
vertex 0.765367 -2.000000 -1.847759
vertex 1.111140 -2.000000 -1.662939
endloop
endfacet
facet normal 0.000000 -1.000000 0.000002
outer loop
vertex 1.111140 -2.000000 -1.662939
vertex 1.414213 -2.000000 -1.414214
vertex 1.662939 -2.000000 -1.111140
endloop
endfacet
facet normal 0.000001 -1.000000 -0.000002
outer loop
vertex 1.662939 -2.000000 -1.111140
vertex 1.847759 -2.000000 -0.765367
vertex 1.961570 -2.000000 -0.390181
endloop
endfacet
facet normal -0.000002 -1.000000 0.000000
outer loop
vertex 1.961570 -2.000000 -0.390181
vertex 2.000000 -2.000000 -0.000000
vertex 1.961570 -2.000000 0.390181
endloop
endfacet
facet normal -0.000001 -1.000000 0.000000
outer loop
vertex 1.961570 -2.000000 0.390181
vertex 1.847759 -2.000000 0.765367
vertex 1.662939 -2.000000 1.111140
endloop
endfacet
facet normal 0.000000 -1.000000 0.000000
outer loop
vertex 1.662939 -2.000000 1.111140
vertex 1.414213 -2.000000 1.414214
vertex 1.111140 -2.000000 1.662939
endloop
endfacet
facet normal -0.000001 -1.000000 -0.000004
outer loop
vertex 1.111140 -2.000000 1.662939
vertex 0.765367 -2.000000 1.847759
vertex 0.390181 -2.000000 1.961571
endloop
endfacet
facet normal -0.000000 -1.000000 0.000000
outer loop
vertex 0.390181 -2.000000 1.961571
vertex -0.390180 -2.000000 1.961571
vertex -1.111140 -2.000000 1.662939
endloop
endfacet
facet normal -0.000001 -1.000000 0.000000
outer loop
vertex -1.111140 -2.000000 1.662939
vertex -1.662939 -2.000000 1.111140
vertex -1.961570 -2.000000 0.390181
endloop
endfacet
facet normal 0.000000 -1.000000 0.000000
outer loop
vertex -1.961570 -2.000000 0.390181
vertex -1.961570 -2.000000 -0.390181
vertex -1.662939 -2.000000 -1.111141
endloop
endfacet
facet normal 0.000000 -1.000000 0.000000
outer loop
vertex -1.662939 -2.000000 -1.111141
vertex -1.111140 -2.000000 -1.662939
vertex -0.390180 -2.000000 -1.961571
endloop
endfacet
facet normal 0.000000 -1.000000 0.000000
outer loop
vertex -0.390180 -2.000000 -1.961571
vertex 0.390181 -2.000000 -1.961571
vertex 1.111140 -2.000000 -1.662939
endloop
endfacet
facet normal 0.000000 -1.000000 -0.000001
outer loop
vertex 1.111140 -2.000000 -1.662939
vertex 1.662939 -2.000000 -1.111140
vertex 1.961570 -2.000000 -0.390181
endloop
endfacet
facet normal 0.000001 -1.000000 0.000000
outer loop
vertex 1.961570 -2.000000 -0.390181
vertex 1.961570 -2.000000 0.390181
vertex 1.662939 -2.000000 1.111140
endloop
endfacet
facet normal 0.000001 -1.000000 0.000000
outer loop
vertex 1.662939 -2.000000 1.111140
vertex 1.111140 -2.000000 1.662939
vertex 0.390181 -2.000000 1.961571
endloop
endfacet
facet normal -0.000000 -1.000000 0.000000
outer loop
vertex 0.390181 -2.000000 1.961571
vertex -1.111140 -2.000000 1.662939
vertex -1.961570 -2.000000 0.390181
endloop
endfacet
facet normal -0.000000 -1.000000 -0.000000
outer loop
vertex -1.961570 -2.000000 0.390181
vertex -1.662939 -2.000000 -1.111141
vertex -0.390180 -2.000000 -1.961571
endloop
endfacet
facet normal 0.000000 -1.000000 -0.000000
outer loop
vertex -0.390180 -2.000000 -1.961571
vertex 1.111140 -2.000000 -1.662939
vertex 1.961570 -2.000000 -0.390181
endloop
endfacet
facet normal 0.000000 -1.000000 0.000000
outer loop
vertex 1.961570 -2.000000 -0.390181
vertex 1.662939 -2.000000 1.111140
vertex 0.390181 -2.000000 1.961571
endloop
endfacet
facet normal -0.000000 -1.000000 -0.000000
outer loop
vertex 0.390181 -2.000000 1.961571
vertex -1.961570 -2.000000 0.390181
vertex -0.390180 -2.000000 -1.961571
endloop
endfacet
facet normal 0.000000 -1.000000 0.000000
outer loop
vertex -0.390180 -2.000000 -1.961571
vertex 1.961570 -2.000000 -0.390181
vertex 0.390181 -2.000000 1.961571
endloop
endfacet
facet normal -0.146729 -0.000000 0.989177
outer loop
vertex -0.390180 2.000000 1.961571
vertex -0.390180 -2.000000 1.961571
vertex -0.196034 -2.000000 1.990369
endloop
endfacet
facet normal -0.146729 0.000000 0.989177
outer loop
vertex -0.390180 2.000000 1.961571
vertex -0.196034 -2.000000 1.990369
vertex -0.196034 2.000000 1.990369
endloop
endfacet
facet normal -0.049068 0.000000 0.998795
outer loop
vertex -0.196034 2.000000 1.990369
vertex -0.196034 -2.000000 1.990369
vertex 0.000000 -2.000000 2.000000
endloop
endfacet
facet normal -0.049068 0.000000 0.998795
outer loop
vertex -0.196034 2.000000 1.990369
vertex 0.000000 -2.000000 2.000000
vertex 0.000000 2.000000 2.000000
endloop
endfacet
facet normal 0.000000 1.000000 0.000000
outer loop
vertex -0.196034 2.000000 1.990369
vertex 0.000000 2.000000 2.000000
vertex 0.196034 2.000000 1.990369
endloop
endfacet
facet normal 0.000000 1.000000 0.000016
outer loop
vertex 0.196034 2.000000 1.990369
vertex 0.390181 2.000000 1.961571
vertex 0.580569 2.000000 1.913881
endloop
endfacet
facet normal 0.000000 1.000000 0.000000
outer loop
vertex 0.580569 2.000000 1.913881
vertex 0.765367 2.000000 1.847759
vertex 0.942793 2.000000 1.763843
endloop
endfacet
facet normal 0.000000 1.000000 0.000000
outer loop
vertex 0.942793 2.000000 1.763843
vertex 1.111140 2.000000 1.662939
vertex 1.268786 2.000000 1.546021
endloop
endfacet
facet normal 0.000000 1.000000 0.000000
outer loop
vertex 1.268786 2.000000 1.546021
vertex 1.414213 2.000000 1.414214
vertex 1.546021 2.000000 1.268786
endloop
endfacet
facet normal 0.000000 1.000000 0.000000
outer loop
vertex 1.546021 2.000000 1.268786
vertex 1.662939 2.000000 1.111140
vertex 1.763842 2.000000 0.942794
endloop
endfacet
facet normal 0.000000 1.000000 0.000000
outer loop
vertex 1.763842 2.000000 0.942794
vertex 1.847759 2.000000 0.765367
vertex 1.913881 2.000000 0.580569
endloop
endfacet
facet normal 0.000000 1.000000 0.000000
outer loop
vertex 1.913881 2.000000 0.580569
vertex 1.961570 2.000000 0.390181
vertex 1.990369 2.000000 0.196034
endloop
endfacet
facet normal 0.000000 1.000000 0.000000
outer loop
vertex 1.990369 2.000000 0.196034
vertex 2.000000 2.000000 -0.000000
vertex 1.990369 2.000000 -0.196034
endloop
endfacet
facet normal 0.000000 1.000000 0.000000
outer loop
vertex 1.990369 2.000000 -0.196034
vertex 1.961570 2.000000 -0.390181
vertex 1.913880 2.000000 -0.580569
endloop
endfacet
facet normal 0.000000 1.000000 0.000000
outer loop
vertex 1.913880 2.000000 -0.580569
vertex 1.847759 2.000000 -0.765367
vertex 1.763842 2.000000 -0.942793
endloop
endfacet
facet normal 0.000005 1.000000 -0.000008
outer loop
vertex 1.763842 2.000000 -0.942793
vertex 1.662939 2.000000 -1.111140
vertex 1.546021 2.000000 -1.268787
endloop
endfacet
facet normal -0.000004 1.000000 0.000000
outer loop
vertex 1.546021 2.000000 -1.268787
vertex 1.414213 2.000000 -1.414214
vertex 1.268786 2.000000 -1.546021
endloop
endfacet
facet normal -0.000014 1.000000 0.000000
outer loop
vertex 1.268786 2.000000 -1.546021
vertex 1.111140 2.000000 -1.662939
vertex 0.942794 2.000000 -1.763842
endloop
endfacet
facet normal -0.000009 1.000000 0.000000
outer loop
vertex 0.942794 2.000000 -1.763842
vertex 0.765367 2.000000 -1.847759
vertex 0.580569 2.000000 -1.913881
endloop
endfacet
facet normal 0.000000 1.000000 0.000016
outer loop
vertex 0.580569 2.000000 -1.913881
vertex 0.390181 2.000000 -1.961571
vertex 0.196034 2.000000 -1.990369
endloop
endfacet
facet normal 0.000000 1.000000 0.000016
outer loop
vertex 0.196034 2.000000 -1.990369
vertex -0.000000 2.000000 -2.000000
vertex -0.196034 2.000000 -1.990369
endloop
endfacet
facet normal 0.000000 1.000000 0.000000
outer loop
vertex -0.196034 2.000000 -1.990369
vertex -0.390180 2.000000 -1.961571
vertex -0.580569 2.000000 -1.913881
endloop
endfacet
facet normal 0.000009 1.000000 0.000000
outer loop
vertex -0.580569 2.000000 -1.913881
vertex -0.765367 2.000000 -1.847759
vertex -0.942793 2.000000 -1.763842
endloop
endfacet
facet normal 0.000000 1.000000 0.000000
outer loop
vertex -0.942793 2.000000 -1.763842
vertex -1.111140 2.000000 -1.662939
vertex -1.268786 2.000000 -1.546021
endloop
endfacet
facet normal 0.000000 1.000000 0.000000
outer loop
vertex -1.268786 2.000000 -1.546021
vertex -1.414213 2.000000 -1.414214
vertex -1.546021 2.000000 -1.268787
endloop
endfacet
facet normal -0.000010 1.000000 0.000000
outer loop
vertex -1.546021 2.000000 -1.268787
vertex -1.662939 2.000000 -1.111141
vertex -1.763842 2.000000 -0.942793
endloop
endfacet
facet normal 0.000000 1.000000 0.000000
outer loop
vertex -1.763842 2.000000 -0.942793
vertex -1.847759 2.000000 -0.765367
vertex -1.913881 2.000000 -0.580569
endloop
endfacet
facet normal 0.000000 1.000000 0.000000
outer loop
vertex -1.913881 2.000000 -0.580569
vertex -1.961570 2.000000 -0.390181
vertex -1.990369 2.000000 -0.196034
endloop
endfacet
facet normal 0.000000 1.000000 0.000000
outer loop
vertex -1.990369 2.000000 -0.196034
vertex -2.000000 2.000000 0.000000
vertex -1.990369 2.000000 0.196034
endloop
endfacet
facet normal 0.000000 1.000000 0.000000
outer loop
vertex -1.990369 2.000000 0.196034
vertex -1.961570 2.000000 0.390181
vertex -1.913881 2.000000 0.580569
endloop
endfacet
facet normal 0.000000 1.000000 0.000000
outer loop
vertex -1.913881 2.000000 0.580569
vertex -1.847759 2.000000 0.765367
vertex -1.763842 2.000000 0.942793
endloop
endfacet
facet normal 0.000000 1.000000 0.000000
outer loop
vertex -1.763842 2.000000 0.942793
vertex -1.662939 2.000000 1.111140
vertex -1.546021 2.000000 1.268787
endloop
endfacet
facet normal 0.000000 1.000000 0.000000
outer loop
vertex -1.546021 2.000000 1.268787
vertex -1.414214 2.000000 1.414213
vertex -1.268786 2.000000 1.546021
endloop
endfacet
facet normal 0.000000 1.000000 0.000000
outer loop
vertex -1.268786 2.000000 1.546021
vertex -1.111140 2.000000 1.662939
vertex -0.942793 2.000000 1.763843
endloop
endfacet
facet normal 0.000000 1.000000 0.000000
outer loop
vertex -0.942793 2.000000 1.763843
vertex -0.765367 2.000000 1.847759
vertex -0.580570 2.000000 1.913881
endloop
endfacet
facet normal 0.000000 1.000000 -0.000016
outer loop
vertex -0.580570 2.000000 1.913881
vertex -0.390180 2.000000 1.961571
vertex -0.196034 2.000000 1.990369
endloop
endfacet
facet normal 0.000000 1.000000 0.000000
outer loop
vertex -0.196034 2.000000 1.990369
vertex 0.196034 2.000000 1.990369
vertex 0.580569 2.000000 1.913881
endloop
endfacet
facet normal 0.000000 1.000000 0.000000
outer loop
vertex 0.580569 2.000000 1.913881
vertex 0.942793 2.000000 1.763843
vertex 1.268786 2.000000 1.546021
endloop
endfacet
facet normal 0.000000 1.000000 0.000000
outer loop
vertex 1.268786 2.000000 1.546021
vertex 1.546021 2.000000 1.268786
vertex 1.763842 2.000000 0.942794
endloop
endfacet
facet normal 0.000000 1.000000 0.000000
outer loop
vertex 1.763842 2.000000 0.942794
vertex 1.913881 2.000000 0.580569
vertex 1.990369 2.000000 0.196034
endloop
endfacet
facet normal 0.000000 1.000000 0.000000
outer loop
vertex 1.990369 2.000000 0.196034
vertex 1.990369 2.000000 -0.196034
vertex 1.913880 2.000000 -0.580569
endloop
endfacet
facet normal -0.000001 1.000000 0.000000
outer loop
vertex 1.913880 2.000000 -0.580569
vertex 1.763842 2.000000 -0.942793
vertex 1.546021 2.000000 -1.268787
endloop
endfacet
facet normal -0.000001 1.000000 0.000000
outer loop
vertex 1.546021 2.000000 -1.268787
vertex 1.268786 2.000000 -1.546021
vertex 0.942794 2.000000 -1.763842
endloop
endfacet
facet normal 0.000000 1.000000 0.000000
outer loop
vertex 0.942794 2.000000 -1.763842
vertex 0.580569 2.000000 -1.913881
vertex 0.196034 2.000000 -1.990369
endloop
endfacet
facet normal 0.000000 1.000000 -0.000004
outer loop
vertex 0.196034 2.000000 -1.990369
vertex -0.196034 2.000000 -1.990369
vertex -0.580569 2.000000 -1.913881
endloop
endfacet
facet normal 0.000000 1.000000 0.000000
outer loop
vertex -0.580569 2.000000 -1.913881
vertex -0.942793 2.000000 -1.763842
vertex -1.268786 2.000000 -1.546021
endloop
endfacet
facet normal 0.000000 1.000000 0.000000
outer loop
vertex -1.268786 2.000000 -1.546021
vertex -1.546021 2.000000 -1.268787
vertex -1.763842 2.000000 -0.942793
endloop
endfacet
facet normal 0.000000 1.000000 0.000000
outer loop
vertex -1.763842 2.000000 -0.942793
vertex -1.913881 2.000000 -0.580569
vertex -1.990369 2.000000 -0.196034
endloop
endfacet
facet normal 0.000000 1.000000 0.000000
outer loop
vertex -1.990369 2.000000 -0.196034
vertex -1.990369 2.000000 0.196034
vertex -1.913881 2.000000 0.580569
endloop
endfacet
facet normal 0.000000 1.000000 0.000000
outer loop
vertex -1.913881 2.000000 0.580569
vertex -1.763842 2.000000 0.942793
vertex -1.546021 2.000000 1.268787
endloop
endfacet
facet normal 0.000000 1.000000 0.000000
outer loop
vertex -1.546021 2.000000 1.268787
vertex -1.268786 2.000000 1.546021
vertex -0.942793 2.000000 1.763843
endloop
endfacet
facet normal 0.000000 1.000000 0.000000
outer loop
vertex -0.942793 2.000000 1.763843
vertex -0.580570 2.000000 1.913881
vertex -0.196034 2.000000 1.990369
endloop
endfacet
facet normal 0.000000 1.000000 -0.000001
outer loop
vertex -0.196034 2.000000 1.990369
vertex 0.580569 2.000000 1.913881
vertex 1.268786 2.000000 1.546021
endloop
endfacet
facet normal 0.000000 1.000000 0.000000
outer loop
vertex 1.268786 2.000000 1.546021
vertex 1.763842 2.000000 0.942794
vertex 1.990369 2.000000 0.196034
endloop
endfacet
facet normal -0.000000 1.000000 0.000000
outer loop
vertex 1.990369 2.000000 0.196034
vertex 1.913880 2.000000 -0.580569
vertex 1.546021 2.000000 -1.268787
endloop
endfacet
facet normal -0.000000 1.000000 0.000000
outer loop
vertex 1.546021 2.000000 -1.268787
vertex 0.942794 2.000000 -1.763842
vertex 0.196034 2.000000 -1.990369
endloop
endfacet
facet normal 0.000000 1.000000 0.000000
outer loop
vertex 0.196034 2.000000 -1.990369
vertex -0.580569 2.000000 -1.913881
vertex -1.268786 2.000000 -1.546021
endloop
endfacet
facet normal 0.000000 1.000000 0.000000
outer loop
vertex -1.268786 2.000000 -1.546021
vertex -1.763842 2.000000 -0.942793
vertex -1.990369 2.000000 -0.196034
endloop
endfacet
facet normal 0.000000 1.000000 0.000000
outer loop
vertex -1.990369 2.000000 -0.196034
vertex -1.913881 2.000000 0.580569
vertex -1.546021 2.000000 1.268787
endloop
endfacet
facet normal 0.000000 1.000000 0.000001
outer loop
vertex -1.546021 2.000000 1.268787
vertex -0.942793 2.000000 1.763843
vertex -0.196034 2.000000 1.990369
endloop
endfacet
facet normal 0.000000 1.000000 0.000000
outer loop
vertex -0.196034 2.000000 1.990369
vertex 1.268786 2.000000 1.546021
vertex 1.990369 2.000000 0.196034
endloop
endfacet
facet normal 0.000000 1.000000 0.000000
outer loop
vertex 1.990369 2.000000 0.196034
vertex 1.546021 2.000000 -1.268787
vertex 0.196034 2.000000 -1.990369
endloop
endfacet
facet normal 0.000000 1.000000 0.000000
outer loop
vertex 0.196034 2.000000 -1.990369
vertex -1.268786 2.000000 -1.546021
vertex -1.990369 2.000000 -0.196034
endloop
endfacet
facet normal 0.000000 1.000000 0.000000
outer loop
vertex -1.990369 2.000000 -0.196034
vertex -1.546021 2.000000 1.268787
vertex -0.196034 2.000000 1.990369
endloop
endfacet
facet normal 0.000000 1.000000 0.000000
outer loop
vertex -0.196034 2.000000 1.990369
vertex 1.990369 2.000000 0.196034
vertex 0.196034 2.000000 -1.990369
endloop
endfacet
facet normal 0.000000 1.000000 0.000000
outer loop
vertex 0.196034 2.000000 -1.990369
vertex -1.990369 2.000000 -0.196034
vertex -0.196034 2.000000 1.990369
endloop
endfacet
endsolid Exported from Blender-3.0.1
