solid Exported from Blender-2.82 (sub 7)
facet normal 0.049070 0.000000 0.998795
outer loop
vertex -0.000000 1.000000 2.000000
vertex -0.000000 -1.000000 2.000000
vertex 0.196034 -1.000001 1.990370
endloop
endfacet
facet normal 0.049068 0.000000 0.998795
outer loop
vertex -0.000000 1.000000 2.000000
vertex 0.196034 -1.000001 1.990370
vertex 0.196034 0.999999 1.990370
endloop
endfacet
facet normal 0.146729 0.000000 0.989177
outer loop
vertex 0.196034 0.999999 1.990370
vertex 0.196034 -1.000001 1.990370
vertex 0.390181 -1.000001 1.961571
endloop
endfacet
facet normal 0.146730 0.000000 0.989177
outer loop
vertex 0.196034 0.999999 1.990370
vertex 0.390181 -1.000001 1.961571
vertex 0.390181 0.999999 1.961571
endloop
endfacet
facet normal 0.242981 0.000000 0.970031
outer loop
vertex 0.390181 0.999999 1.961571
vertex 0.390181 -1.000001 1.961571
vertex 0.580569 -1.000001 1.913881
endloop
endfacet
facet normal 0.242978 -0.000000 0.970032
outer loop
vertex 0.390181 0.999999 1.961571
vertex 0.580569 -1.000001 1.913881
vertex 0.580569 0.999999 1.913881
endloop
endfacet
facet normal 0.336890 -0.000000 0.941544
outer loop
vertex 0.580569 0.999999 1.913881
vertex 0.580569 -1.000001 1.913881
vertex 0.765367 -1.000001 1.847759
endloop
endfacet
facet normal 0.336891 0.000000 0.941544
outer loop
vertex 0.580569 0.999999 1.913881
vertex 0.765367 -1.000001 1.847759
vertex 0.765367 0.999999 1.847759
endloop
endfacet
facet normal 0.427557 0.000000 0.903989
outer loop
vertex 0.765367 0.999999 1.847759
vertex 0.765367 -1.000001 1.847759
vertex 0.942793 -1.000001 1.763843
endloop
endfacet
facet normal 0.427554 -0.000000 0.903990
outer loop
vertex 0.765367 0.999999 1.847759
vertex 0.942793 -1.000001 1.763843
vertex 0.942793 0.999999 1.763843
endloop
endfacet
facet normal 0.514104 -0.000000 0.857728
outer loop
vertex 0.942793 0.999999 1.763843
vertex 0.942793 -1.000001 1.763843
vertex 1.111140 -1.000001 1.662940
endloop
endfacet
facet normal 0.514104 0.000000 0.857728
outer loop
vertex 0.942793 0.999999 1.763843
vertex 1.111140 -1.000001 1.662940
vertex 1.111140 0.999999 1.662940
endloop
endfacet
facet normal 0.595698 0.000000 0.803209
outer loop
vertex 1.111140 0.999999 1.662940
vertex 1.111140 -1.000001 1.662940
vertex 1.268786 -1.000000 1.546021
endloop
endfacet
facet normal 0.595699 0.000000 0.803208
outer loop
vertex 1.111140 0.999999 1.662940
vertex 1.268786 -1.000000 1.546021
vertex 1.268786 0.999999 1.546021
endloop
endfacet
facet normal 0.671559 0.000000 0.740951
outer loop
vertex 1.268786 0.999999 1.546021
vertex 1.268786 -1.000000 1.546021
vertex 1.414213 -1.000000 1.414214
endloop
endfacet
facet normal 0.671559 0.000000 0.740951
outer loop
vertex 1.268786 0.999999 1.546021
vertex 1.414213 -1.000000 1.414214
vertex 1.414213 0.999999 1.414214
endloop
endfacet
facet normal 0.740951 0.000000 0.671559
outer loop
vertex 1.414213 0.999999 1.414214
vertex 1.414213 -1.000000 1.414214
vertex 1.546021 -1.000000 1.268787
endloop
endfacet
facet normal 0.740951 0.000000 0.671559
outer loop
vertex 1.414213 0.999999 1.414214
vertex 1.546021 -1.000000 1.268787
vertex 1.546021 0.999999 1.268787
endloop
endfacet
facet normal 0.803208 0.000000 0.595699
outer loop
vertex 1.546021 0.999999 1.268787
vertex 1.546021 -1.000000 1.268787
vertex 1.662939 -1.000001 1.111141
endloop
endfacet
facet normal 0.803207 0.000000 0.595700
outer loop
vertex 1.546021 0.999999 1.268787
vertex 1.662939 -1.000001 1.111141
vertex 1.662939 0.999999 1.111141
endloop
endfacet
facet normal 0.857729 0.000000 0.514102
outer loop
vertex 1.662939 0.999999 1.111141
vertex 1.662939 -1.000001 1.111141
vertex 1.763842 -1.000000 0.942794
endloop
endfacet
facet normal 0.857729 -0.000000 0.514103
outer loop
vertex 1.662939 0.999999 1.111141
vertex 1.763842 -1.000000 0.942794
vertex 1.763842 0.999999 0.942794
endloop
endfacet
facet normal 0.903989 0.000000 0.427555
outer loop
vertex 1.763842 0.999999 0.942794
vertex 1.763842 -1.000000 0.942794
vertex 1.847759 -1.000000 0.765367
endloop
endfacet
facet normal 0.903989 -0.000000 0.427555
outer loop
vertex 1.763842 0.999999 0.942794
vertex 1.847759 -1.000000 0.765367
vertex 1.847759 0.999999 0.765367
endloop
endfacet
facet normal 0.941544 -0.000000 0.336890
outer loop
vertex 1.847759 0.999999 0.765367
vertex 1.847759 -1.000000 0.765367
vertex 1.913881 -1.000000 0.580570
endloop
endfacet
facet normal 0.941544 0.000000 0.336890
outer loop
vertex 1.847759 0.999999 0.765367
vertex 1.913881 -1.000000 0.580570
vertex 1.913881 1.000000 0.580570
endloop
endfacet
facet normal 0.970031 0.000000 0.242980
outer loop
vertex 1.913881 1.000000 0.580570
vertex 1.913881 -1.000000 0.580570
vertex 1.961571 -1.000000 0.390181
endloop
endfacet
facet normal 0.970031 0.000000 0.242980
outer loop
vertex 1.913881 1.000000 0.580570
vertex 1.961571 -1.000000 0.390181
vertex 1.961571 1.000000 0.390181
endloop
endfacet
facet normal 0.989177 0.000000 0.146730
outer loop
vertex 1.961571 1.000000 0.390181
vertex 1.961571 -1.000000 0.390181
vertex 1.990369 -1.000000 0.196034
endloop
endfacet
facet normal 0.989177 0.000000 0.146730
outer loop
vertex 1.961571 1.000000 0.390181
vertex 1.990369 -1.000000 0.196034
vertex 1.990369 1.000000 0.196035
endloop
endfacet
facet normal 0.998796 0.000000 0.049067
outer loop
vertex 1.990369 1.000000 0.196035
vertex 1.990369 -1.000000 0.196034
vertex 2.000000 -1.000000 0.000000
endloop
endfacet
facet normal 0.998796 0.000000 0.049067
outer loop
vertex 1.990369 1.000000 0.196035
vertex 2.000000 -1.000000 0.000000
vertex 2.000000 1.000000 0.000000
endloop
endfacet
facet normal 0.998796 0.000000 -0.049067
outer loop
vertex 2.000000 1.000000 0.000000
vertex 2.000000 -1.000000 0.000000
vertex 1.990369 -1.000000 -0.196034
endloop
endfacet
facet normal 0.998796 0.000000 -0.049067
outer loop
vertex 2.000000 1.000000 0.000000
vertex 1.990369 -1.000000 -0.196034
vertex 1.990369 1.000000 -0.196034
endloop
endfacet
facet normal 0.989176 0.000000 -0.146731
outer loop
vertex 1.990369 1.000000 -0.196034
vertex 1.990369 -1.000000 -0.196034
vertex 1.961570 -1.000000 -0.390181
endloop
endfacet
facet normal 0.989177 0.000000 -0.146731
outer loop
vertex 1.990369 1.000000 -0.196034
vertex 1.961570 -1.000000 -0.390181
vertex 1.961570 0.999999 -0.390181
endloop
endfacet
facet normal 0.970031 0.000000 -0.242981
outer loop
vertex 1.961570 0.999999 -0.390181
vertex 1.961570 -1.000000 -0.390181
vertex 1.913880 -1.000000 -0.580570
endloop
endfacet
facet normal 0.970031 0.000000 -0.242981
outer loop
vertex 1.961570 0.999999 -0.390181
vertex 1.913880 -1.000000 -0.580570
vertex 1.913880 1.000000 -0.580569
endloop
endfacet
facet normal 0.941544 0.000000 -0.336890
outer loop
vertex 1.913880 1.000000 -0.580569
vertex 1.913880 -1.000000 -0.580570
vertex 1.847759 -1.000000 -0.765367
endloop
endfacet
facet normal 0.941544 -0.000000 -0.336890
outer loop
vertex 1.913880 1.000000 -0.580569
vertex 1.847759 -1.000000 -0.765367
vertex 1.847759 1.000000 -0.765367
endloop
endfacet
facet normal 0.903989 0.000000 -0.427555
outer loop
vertex 1.847759 1.000000 -0.765367
vertex 1.847759 -1.000000 -0.765367
vertex 1.763842 -1.000000 -0.942794
endloop
endfacet
facet normal 0.903989 -0.000000 -0.427555
outer loop
vertex 1.847759 1.000000 -0.765367
vertex 1.763842 -1.000000 -0.942794
vertex 1.763842 1.000000 -0.942794
endloop
endfacet
facet normal 0.857729 0.000000 -0.514103
outer loop
vertex 1.763842 1.000000 -0.942794
vertex 1.763842 -1.000000 -0.942794
vertex 1.662939 -1.000000 -1.111141
endloop
endfacet
facet normal 0.857728 0.000000 -0.514103
outer loop
vertex 1.763842 1.000000 -0.942794
vertex 1.662939 -1.000000 -1.111141
vertex 1.662939 1.000000 -1.111141
endloop
endfacet
facet normal 0.803207 0.000000 -0.595699
outer loop
vertex 1.662939 1.000000 -1.111141
vertex 1.662939 -1.000000 -1.111141
vertex 1.546020 -1.000000 -1.268787
endloop
endfacet
facet normal 0.803207 0.000000 -0.595700
outer loop
vertex 1.662939 1.000000 -1.111141
vertex 1.546020 -1.000000 -1.268787
vertex 1.546020 1.000000 -1.268787
endloop
endfacet
facet normal 0.740950 0.000000 -0.671560
outer loop
vertex 1.546020 1.000000 -1.268787
vertex 1.546020 -1.000000 -1.268787
vertex 1.414213 -1.000000 -1.414214
endloop
endfacet
facet normal 0.740950 -0.000000 -0.671560
outer loop
vertex 1.546020 1.000000 -1.268787
vertex 1.414213 -1.000000 -1.414214
vertex 1.414213 1.000000 -1.414214
endloop
endfacet
facet normal 0.671559 0.000000 -0.740951
outer loop
vertex 1.414213 1.000000 -1.414214
vertex 1.414213 -1.000000 -1.414214
vertex 1.268786 -1.000000 -1.546021
endloop
endfacet
facet normal 0.671559 -0.000000 -0.740951
outer loop
vertex 1.414213 1.000000 -1.414214
vertex 1.268786 -1.000000 -1.546021
vertex 1.268786 1.000000 -1.546021
endloop
endfacet
facet normal 0.595700 -0.000000 -0.803207
outer loop
vertex 1.268786 1.000000 -1.546021
vertex 1.268786 -1.000000 -1.546021
vertex 1.111139 -1.000000 -1.662940
endloop
endfacet
facet normal 0.595700 0.000000 -0.803207
outer loop
vertex 1.268786 1.000000 -1.546021
vertex 1.111139 -1.000000 -1.662940
vertex 1.111139 1.000000 -1.662939
endloop
endfacet
facet normal 0.514102 0.000000 -0.857729
outer loop
vertex 1.111139 1.000000 -1.662939
vertex 1.111139 -1.000000 -1.662940
vertex 0.942792 -1.000000 -1.763843
endloop
endfacet
facet normal 0.514103 0.000000 -0.857729
outer loop
vertex 1.111139 1.000000 -1.662939
vertex 0.942792 -1.000000 -1.763843
vertex 0.942792 1.000000 -1.763843
endloop
endfacet
facet normal 0.427555 0.000000 -0.903989
outer loop
vertex 0.942792 1.000000 -1.763843
vertex 0.942792 -1.000000 -1.763843
vertex 0.765366 -1.000000 -1.847759
endloop
endfacet
facet normal 0.427554 0.000000 -0.903990
outer loop
vertex 0.942792 1.000000 -1.763843
vertex 0.765366 -1.000000 -1.847759
vertex 0.765366 1.000000 -1.847759
endloop
endfacet
facet normal 0.336887 0.000000 -0.941545
outer loop
vertex 0.765366 1.000000 -1.847759
vertex 0.765366 -1.000000 -1.847759
vertex 0.580568 -1.000000 -1.913881
endloop
endfacet
facet normal 0.336891 0.000000 -0.941544
outer loop
vertex 0.765366 1.000000 -1.847759
vertex 0.580568 -1.000000 -1.913881
vertex 0.580568 1.000000 -1.913881
endloop
endfacet
facet normal 0.242979 0.000000 -0.970032
outer loop
vertex 0.580568 1.000000 -1.913881
vertex 0.580568 -1.000000 -1.913881
vertex 0.390179 -1.000000 -1.961570
endloop
endfacet
facet normal 0.242978 -0.000000 -0.970032
outer loop
vertex 0.580568 1.000000 -1.913881
vertex 0.390179 -1.000000 -1.961570
vertex 0.390179 1.000000 -1.961570
endloop
endfacet
facet normal 0.146731 -0.000000 -0.989176
outer loop
vertex 0.390179 1.000000 -1.961570
vertex 0.390179 -1.000000 -1.961570
vertex 0.196033 -1.000000 -1.990369
endloop
endfacet
facet normal 0.146730 0.000000 -0.989177
outer loop
vertex 0.390179 1.000000 -1.961570
vertex 0.196033 -1.000000 -1.990369
vertex 0.196033 1.000000 -1.990369
endloop
endfacet
facet normal 0.049067 0.000000 -0.998796
outer loop
vertex 0.196033 1.000000 -1.990369
vertex 0.196033 -1.000000 -1.990369
vertex -0.000002 -1.000000 -2.000000
endloop
endfacet
facet normal 0.049067 0.000000 -0.998795
outer loop
vertex 0.196033 1.000000 -1.990369
vertex -0.000002 -1.000000 -2.000000
vertex -0.000002 1.000000 -2.000000
endloop
endfacet
facet normal -0.049068 0.000000 -0.998795
outer loop
vertex -0.000002 1.000000 -2.000000
vertex -0.000002 -1.000000 -2.000000
vertex -0.196036 -1.000000 -1.990369
endloop
endfacet
facet normal -0.049068 0.000000 -0.998795
outer loop
vertex -0.000002 1.000000 -2.000000
vertex -0.196036 -1.000000 -1.990369
vertex -0.196036 1.000000 -1.990369
endloop
endfacet
facet normal -0.146731 0.000000 -0.989176
outer loop
vertex -0.196036 1.000000 -1.990369
vertex -0.196036 -1.000000 -1.990369
vertex -0.390182 -1.000000 -1.961570
endloop
endfacet
facet normal -0.146731 0.000000 -0.989176
outer loop
vertex -0.196036 1.000000 -1.990369
vertex -0.390182 -1.000000 -1.961570
vertex -0.390182 1.000000 -1.961570
endloop
endfacet
facet normal -0.242981 0.000000 -0.970031
outer loop
vertex -0.390182 1.000000 -1.961570
vertex -0.390182 -1.000000 -1.961570
vertex -0.580571 -1.000000 -1.913880
endloop
endfacet
facet normal -0.242981 0.000000 -0.970031
outer loop
vertex -0.390182 1.000000 -1.961570
vertex -0.580571 -1.000000 -1.913880
vertex -0.580571 1.000000 -1.913880
endloop
endfacet
facet normal -0.336891 0.000000 -0.941544
outer loop
vertex -0.580571 1.000000 -1.913880
vertex -0.580571 -1.000000 -1.913880
vertex -0.765369 -1.000000 -1.847758
endloop
endfacet
facet normal -0.336891 0.000000 -0.941544
outer loop
vertex -0.580571 1.000000 -1.913880
vertex -0.765369 -1.000000 -1.847758
vertex -0.765369 1.000000 -1.847758
endloop
endfacet
facet normal -0.427556 0.000000 -0.903989
outer loop
vertex -0.765369 1.000000 -1.847758
vertex -0.765369 -1.000000 -1.847758
vertex -0.942795 -1.000000 -1.763841
endloop
endfacet
facet normal -0.427556 0.000000 -0.903989
outer loop
vertex -0.765369 1.000000 -1.847758
vertex -0.942795 -1.000000 -1.763841
vertex -0.942795 1.000000 -1.763841
endloop
endfacet
facet normal -0.514104 0.000000 -0.857728
outer loop
vertex -0.942795 1.000000 -1.763841
vertex -0.942795 -1.000000 -1.763841
vertex -1.111142 -1.000000 -1.662938
endloop
endfacet
facet normal -0.514104 0.000000 -0.857728
outer loop
vertex -0.942795 1.000000 -1.763841
vertex -1.111142 -1.000000 -1.662938
vertex -1.111142 1.000000 -1.662938
endloop
endfacet
facet normal -0.595700 0.000000 -0.803207
outer loop
vertex -1.111142 1.000000 -1.662938
vertex -1.111142 -1.000000 -1.662938
vertex -1.268788 -1.000000 -1.546019
endloop
endfacet
facet normal -0.595700 0.000000 -0.803207
outer loop
vertex -1.111142 1.000000 -1.662938
vertex -1.268788 -1.000000 -1.546019
vertex -1.268788 1.000000 -1.546019
endloop
endfacet
facet normal -0.671560 0.000000 -0.740951
outer loop
vertex -1.268788 1.000000 -1.546019
vertex -1.268788 -1.000000 -1.546019
vertex -1.414215 -1.000000 -1.414212
endloop
endfacet
facet normal -0.671560 0.000000 -0.740951
outer loop
vertex -1.268788 1.000000 -1.546019
vertex -1.414215 -1.000000 -1.414212
vertex -1.414215 1.000000 -1.414212
endloop
endfacet
facet normal -0.740952 0.000000 -0.671558
outer loop
vertex -1.414215 1.000000 -1.414212
vertex -1.414215 -1.000000 -1.414212
vertex -1.546022 -1.000000 -1.268785
endloop
endfacet
facet normal -0.740952 -0.000000 -0.671558
outer loop
vertex -1.414215 1.000000 -1.414212
vertex -1.546022 -1.000000 -1.268785
vertex -1.546022 0.999999 -1.268785
endloop
endfacet
facet normal -0.803208 -0.000000 -0.595699
outer loop
vertex -1.546022 0.999999 -1.268785
vertex -1.546022 -1.000000 -1.268785
vertex -1.662940 -1.000000 -1.111139
endloop
endfacet
facet normal -0.803208 0.000000 -0.595699
outer loop
vertex -1.546022 0.999999 -1.268785
vertex -1.662940 -1.000000 -1.111139
vertex -1.662940 1.000000 -1.111139
endloop
endfacet
facet normal -0.857729 0.000000 -0.514103
outer loop
vertex -1.662940 1.000000 -1.111139
vertex -1.662940 -1.000000 -1.111139
vertex -1.763843 -1.000000 -0.942792
endloop
endfacet
facet normal -0.857729 -0.000000 -0.514102
outer loop
vertex -1.662940 1.000000 -1.111139
vertex -1.763843 -1.000000 -0.942792
vertex -1.763843 1.000000 -0.942792
endloop
endfacet
facet normal -0.903990 0.000000 -0.427555
outer loop
vertex -1.763843 1.000000 -0.942792
vertex -1.763843 -1.000000 -0.942792
vertex -1.847759 -1.000000 -0.765366
endloop
endfacet
facet normal -0.903989 0.000000 -0.427555
outer loop
vertex -1.763843 1.000000 -0.942792
vertex -1.847759 -1.000000 -0.765366
vertex -1.847759 1.000000 -0.765366
endloop
endfacet
facet normal -0.941544 0.000000 -0.336889
outer loop
vertex -1.847759 1.000000 -0.765366
vertex -1.847759 -1.000000 -0.765366
vertex -1.913881 -1.000000 -0.580569
endloop
endfacet
facet normal -0.941544 0.000000 -0.336889
outer loop
vertex -1.847759 1.000000 -0.765366
vertex -1.913881 -1.000000 -0.580569
vertex -1.913881 0.999999 -0.580569
endloop
endfacet
facet normal -0.970031 0.000000 -0.242980
outer loop
vertex -1.913881 0.999999 -0.580569
vertex -1.913881 -1.000000 -0.580569
vertex -1.961570 -1.000000 -0.390180
endloop
endfacet
facet normal -0.970031 -0.000000 -0.242980
outer loop
vertex -1.913881 0.999999 -0.580569
vertex -1.961570 -1.000000 -0.390180
vertex -1.961570 1.000000 -0.390180
endloop
endfacet
facet normal -0.989176 0.000000 -0.146731
outer loop
vertex -1.961570 1.000000 -0.390180
vertex -1.961570 -1.000000 -0.390180
vertex -1.990369 -1.000000 -0.196034
endloop
endfacet
facet normal -0.989176 -0.000000 -0.146731
outer loop
vertex -1.961570 1.000000 -0.390180
vertex -1.990369 -1.000000 -0.196034
vertex -1.990369 1.000000 -0.196034
endloop
endfacet
facet normal -0.998795 0.000000 -0.049068
outer loop
vertex -1.990369 1.000000 -0.196034
vertex -1.990369 -1.000000 -0.196034
vertex -2.000000 -1.000000 -0.000000
endloop
endfacet
facet normal -0.998795 -0.000000 -0.049068
outer loop
vertex -1.990369 1.000000 -0.196034
vertex -2.000000 -1.000000 -0.000000
vertex -2.000000 1.000000 -0.000000
endloop
endfacet
facet normal -0.998795 0.000000 0.049067
outer loop
vertex -2.000000 1.000000 -0.000000
vertex -2.000000 -1.000000 -0.000000
vertex -1.990369 -1.000000 0.196033
endloop
endfacet
facet normal -0.998795 -0.000000 0.049067
outer loop
vertex -2.000000 1.000000 -0.000000
vertex -1.990369 -1.000000 0.196033
vertex -1.990369 1.000000 0.196033
endloop
endfacet
facet normal -0.989177 0.000000 0.146730
outer loop
vertex -1.990369 1.000000 0.196033
vertex -1.990369 -1.000000 0.196033
vertex -1.961571 -1.000000 0.390179
endloop
endfacet
facet normal -0.989177 0.000000 0.146730
outer loop
vertex -1.990369 1.000000 0.196033
vertex -1.961571 -1.000000 0.390179
vertex -1.961571 1.000000 0.390179
endloop
endfacet
facet normal -0.970032 0.000000 0.242979
outer loop
vertex -1.961571 1.000000 0.390179
vertex -1.961571 -1.000000 0.390179
vertex -1.913881 -1.000000 0.580568
endloop
endfacet
facet normal -0.970031 0.000000 0.242979
outer loop
vertex -1.961571 1.000000 0.390179
vertex -1.913881 -1.000000 0.580568
vertex -1.913881 1.000000 0.580568
endloop
endfacet
facet normal -0.941545 0.000000 0.336889
outer loop
vertex -1.913881 1.000000 0.580568
vertex -1.913881 -1.000000 0.580568
vertex -1.847760 -1.000000 0.765365
endloop
endfacet
facet normal -0.941545 -0.000000 0.336888
outer loop
vertex -1.913881 1.000000 0.580568
vertex -1.847760 -1.000000 0.765365
vertex -1.847760 0.999999 0.765365
endloop
endfacet
facet normal -0.903990 0.000000 0.427554
outer loop
vertex -1.847760 0.999999 0.765365
vertex -1.847760 -1.000000 0.765365
vertex -1.763844 -1.000000 0.942791
endloop
endfacet
facet normal -0.903990 0.000000 0.427554
outer loop
vertex -1.847760 0.999999 0.765365
vertex -1.763844 -1.000000 0.942791
vertex -1.763844 0.999999 0.942791
endloop
endfacet
facet normal -0.857730 -0.000000 0.514101
outer loop
vertex -1.763844 0.999999 0.942791
vertex -1.763844 -1.000000 0.942791
vertex -1.662941 -1.000001 1.111138
endloop
endfacet
facet normal -0.857730 0.000000 0.514101
outer loop
vertex -1.763844 0.999999 0.942791
vertex -1.662941 -1.000001 1.111138
vertex -1.662941 0.999999 1.111138
endloop
endfacet
facet normal -0.803208 0.000000 0.595699
outer loop
vertex -1.662941 0.999999 1.111138
vertex -1.662941 -1.000001 1.111138
vertex -1.546023 -1.000000 1.268784
endloop
endfacet
facet normal -0.803208 -0.000000 0.595699
outer loop
vertex -1.662941 0.999999 1.111138
vertex -1.546023 -1.000000 1.268784
vertex -1.546023 0.999999 1.268784
endloop
endfacet
facet normal -0.740953 0.000000 0.671557
outer loop
vertex -1.546023 0.999999 1.268784
vertex -1.546023 -1.000000 1.268784
vertex -1.414216 -1.000001 1.414211
endloop
endfacet
facet normal -0.740953 -0.000000 0.671557
outer loop
vertex -1.546023 0.999999 1.268784
vertex -1.414216 -1.000001 1.414211
vertex -1.414216 0.999999 1.414211
endloop
endfacet
facet normal -0.671560 0.000000 0.740950
outer loop
vertex -1.414216 0.999999 1.414211
vertex -1.414216 -1.000001 1.414211
vertex -1.268790 -1.000001 1.546018
endloop
endfacet
facet normal -0.671560 -0.000000 0.740950
outer loop
vertex -1.414216 0.999999 1.414211
vertex -1.268790 -1.000001 1.546018
vertex -1.268790 0.999999 1.546019
endloop
endfacet
facet normal -0.595702 -0.000000 0.803206
outer loop
vertex -1.268790 0.999999 1.546019
vertex -1.268790 -1.000001 1.546018
vertex -1.111144 -1.000001 1.662937
endloop
endfacet
facet normal -0.595701 0.000000 0.803206
outer loop
vertex -1.268790 0.999999 1.546019
vertex -1.111144 -1.000001 1.662937
vertex -1.111144 0.999999 1.662937
endloop
endfacet
facet normal -0.514104 0.000000 0.857728
outer loop
vertex -1.111144 0.999999 1.662937
vertex -1.111144 -1.000001 1.662937
vertex -0.942798 -1.000001 1.763841
endloop
endfacet
facet normal -0.514107 -0.000000 0.857726
outer loop
vertex -1.111144 0.999999 1.662937
vertex -0.942798 -1.000001 1.763841
vertex -0.942798 0.999999 1.763841
endloop
endfacet
facet normal -0.427558 -0.000000 0.903988
outer loop
vertex -0.942798 0.999999 1.763841
vertex -0.942798 -1.000001 1.763841
vertex -0.765372 -1.000000 1.847757
endloop
endfacet
facet normal -0.427557 0.000000 0.903989
outer loop
vertex -0.942798 0.999999 1.763841
vertex -0.765372 -1.000000 1.847757
vertex -0.765372 0.999999 1.847757
endloop
endfacet
facet normal -0.336893 0.000000 0.941543
outer loop
vertex -0.765372 0.999999 1.847757
vertex -0.765372 -1.000000 1.847757
vertex -0.580575 -1.000000 1.913879
endloop
endfacet
facet normal -0.336893 0.000000 0.941543
outer loop
vertex -0.765372 0.999999 1.847757
vertex -0.580575 -1.000000 1.913879
vertex -0.580575 0.999999 1.913879
endloop
endfacet
facet normal -0.242983 0.000000 0.970030
outer loop
vertex -0.580575 0.999999 1.913879
vertex -0.580575 -1.000000 1.913879
vertex -0.390187 -1.000000 1.961570
endloop
endfacet
facet normal -0.242983 0.000000 0.970030
outer loop
vertex -0.580575 0.999999 1.913879
vertex -0.390187 -1.000000 1.961570
vertex -0.390187 0.999999 1.961570
endloop
endfacet
facet normal -0.000001 -1.000000 0.000008
outer loop
vertex 0.390181 -1.000001 1.961571
vertex 0.196034 -1.000001 1.990370
vertex -0.000000 -1.000000 2.000000
endloop
endfacet
facet normal 0.000001 -1.000000 0.000000
outer loop
vertex -0.000000 -1.000000 2.000000
vertex -0.196041 -1.000001 1.990369
vertex -0.390187 -1.000000 1.961570
endloop
endfacet
facet normal 0.000000 -1.000000 0.000000
outer loop
vertex -0.390187 -1.000000 1.961570
vertex -0.580575 -1.000000 1.913879
vertex -0.765372 -1.000000 1.847757
endloop
endfacet
facet normal 0.000001 -1.000000 0.000000
outer loop
vertex -0.765372 -1.000000 1.847757
vertex -0.942798 -1.000001 1.763841
vertex -1.111144 -1.000001 1.662937
endloop
endfacet
facet normal -0.000004 -1.000000 0.000000
outer loop
vertex -1.111144 -1.000001 1.662937
vertex -1.268790 -1.000001 1.546018
vertex -1.414216 -1.000001 1.414211
endloop
endfacet
facet normal -0.000019 -1.000000 0.000020
outer loop
vertex -1.414216 -1.000001 1.414211
vertex -1.546023 -1.000000 1.268784
vertex -1.662941 -1.000001 1.111138
endloop
endfacet
facet normal -0.000006 -1.000000 0.000004
outer loop
vertex -1.662941 -1.000001 1.111138
vertex -1.763844 -1.000000 0.942791
vertex -1.847760 -1.000000 0.765365
endloop
endfacet
facet normal 0.000000 -1.000000 0.000000
outer loop
vertex -1.847760 -1.000000 0.765365
vertex -1.913881 -1.000000 0.580568
vertex -1.961571 -1.000000 0.390179
endloop
endfacet
facet normal 0.000000 -1.000000 0.000000
outer loop
vertex -1.961571 -1.000000 0.390179
vertex -1.990369 -1.000000 0.196033
vertex -2.000000 -1.000000 -0.000000
endloop
endfacet
facet normal 0.000000 -1.000000 -0.000001
outer loop
vertex -2.000000 -1.000000 -0.000000
vertex -1.990369 -1.000000 -0.196034
vertex -1.961570 -1.000000 -0.390180
endloop
endfacet
facet normal 0.000000 -1.000000 0.000000
outer loop
vertex -1.961570 -1.000000 -0.390180
vertex -1.913881 -1.000000 -0.580569
vertex -1.847759 -1.000000 -0.765366
endloop
endfacet
facet normal 0.000000 -1.000000 -0.000004
outer loop
vertex -1.847759 -1.000000 -0.765366
vertex -1.763843 -1.000000 -0.942792
vertex -1.662940 -1.000000 -1.111139
endloop
endfacet
facet normal 0.000000 -1.000000 0.000000
outer loop
vertex -1.662940 -1.000000 -1.111139
vertex -1.546022 -1.000000 -1.268785
vertex -1.414215 -1.000000 -1.414212
endloop
endfacet
facet normal 0.000000 -1.000000 0.000000
outer loop
vertex -1.414215 -1.000000 -1.414212
vertex -1.268788 -1.000000 -1.546019
vertex -1.111142 -1.000000 -1.662938
endloop
endfacet
facet normal 0.000000 -1.000000 -0.000008
outer loop
vertex -1.111142 -1.000000 -1.662938
vertex -0.942795 -1.000000 -1.763841
vertex -0.765369 -1.000000 -1.847758
endloop
endfacet
facet normal 0.000000 -1.000000 0.000000
outer loop
vertex -0.765369 -1.000000 -1.847758
vertex -0.580571 -1.000000 -1.913880
vertex -0.390182 -1.000000 -1.961570
endloop
endfacet
facet normal 0.000000 -1.000000 0.000000
outer loop
vertex -0.390182 -1.000000 -1.961570
vertex -0.196036 -1.000000 -1.990369
vertex -0.000002 -1.000000 -2.000000
endloop
endfacet
facet normal 0.000000 -1.000000 0.000000
outer loop
vertex -0.000002 -1.000000 -2.000000
vertex 0.196033 -1.000000 -1.990369
vertex 0.390179 -1.000000 -1.961570
endloop
endfacet
facet normal 0.000000 -1.000000 0.000000
outer loop
vertex 0.390179 -1.000000 -1.961570
vertex 0.580568 -1.000000 -1.913881
vertex 0.765366 -1.000000 -1.847759
endloop
endfacet
facet normal 0.000000 -1.000000 -0.000008
outer loop
vertex 0.765366 -1.000000 -1.847759
vertex 0.942792 -1.000000 -1.763843
vertex 1.111139 -1.000000 -1.662940
endloop
endfacet
facet normal 0.000000 -1.000000 0.000000
outer loop
vertex 1.111139 -1.000000 -1.662940
vertex 1.268786 -1.000000 -1.546021
vertex 1.414213 -1.000000 -1.414214
endloop
endfacet
facet normal 0.000000 -1.000000 -0.000004
outer loop
vertex 1.414213 -1.000000 -1.414214
vertex 1.546020 -1.000000 -1.268787
vertex 1.662939 -1.000000 -1.111141
endloop
endfacet
facet normal 0.000000 -1.000000 -0.000004
outer loop
vertex 1.662939 -1.000000 -1.111141
vertex 1.763842 -1.000000 -0.942794
vertex 1.847759 -1.000000 -0.765367
endloop
endfacet
facet normal 0.000000 -1.000000 0.000000
outer loop
vertex 1.847759 -1.000000 -0.765367
vertex 1.913880 -1.000000 -0.580570
vertex 1.961570 -1.000000 -0.390181
endloop
endfacet
facet normal 0.000000 -1.000000 -0.000000
outer loop
vertex 1.961570 -1.000000 -0.390181
vertex 1.990369 -1.000000 -0.196034
vertex 2.000000 -1.000000 0.000000
endloop
endfacet
facet normal 0.000000 -1.000000 0.000001
outer loop
vertex 2.000000 -1.000000 0.000000
vertex 1.990369 -1.000000 0.196034
vertex 1.961571 -1.000000 0.390181
endloop
endfacet
facet normal 0.000000 -1.000000 0.000000
outer loop
vertex 1.961571 -1.000000 0.390181
vertex 1.913881 -1.000000 0.580570
vertex 1.847759 -1.000000 0.765367
endloop
endfacet
facet normal 0.000006 -1.000000 0.000004
outer loop
vertex 1.847759 -1.000000 0.765367
vertex 1.763842 -1.000000 0.942794
vertex 1.662939 -1.000001 1.111141
endloop
endfacet
facet normal 0.000005 -1.000000 0.000000
outer loop
vertex 1.662939 -1.000001 1.111141
vertex 1.546021 -1.000000 1.268787
vertex 1.414213 -1.000000 1.414214
endloop
endfacet
facet normal 0.000004 -1.000000 0.000000
outer loop
vertex 1.414213 -1.000000 1.414214
vertex 1.268786 -1.000000 1.546021
vertex 1.111140 -1.000001 1.662940
endloop
endfacet
facet normal 0.000003 -1.000000 0.000000
outer loop
vertex 1.111140 -1.000001 1.662940
vertex 0.942793 -1.000001 1.763843
vertex 0.765367 -1.000001 1.847759
endloop
endfacet
facet normal 0.000004 -1.000000 0.000000
outer loop
vertex 0.765367 -1.000001 1.847759
vertex 0.580569 -1.000001 1.913881
vertex 0.390181 -1.000001 1.961571
endloop
endfacet
facet normal -0.000000 -1.000000 0.000006
outer loop
vertex 0.390181 -1.000001 1.961571
vertex -0.000000 -1.000000 2.000000
vertex -0.390187 -1.000000 1.961570
endloop
endfacet
facet normal -0.000001 -1.000000 0.000002
outer loop
vertex -0.390187 -1.000000 1.961570
vertex -0.765372 -1.000000 1.847757
vertex -1.111144 -1.000001 1.662937
endloop
endfacet
facet normal -0.000001 -1.000000 0.000004
outer loop
vertex -1.111144 -1.000001 1.662937
vertex -1.414216 -1.000001 1.414211
vertex -1.662941 -1.000001 1.111138
endloop
endfacet
facet normal -0.000001 -1.000000 0.000000
outer loop
vertex -1.662941 -1.000001 1.111138
vertex -1.847760 -1.000000 0.765365
vertex -1.961571 -1.000000 0.390179
endloop
endfacet
facet normal 0.000000 -1.000000 0.000000
outer loop
vertex -1.961571 -1.000000 0.390179
vertex -2.000000 -1.000000 -0.000000
vertex -1.961570 -1.000000 -0.390180
endloop
endfacet
facet normal 0.000000 -1.000000 0.000000
outer loop
vertex -1.961570 -1.000000 -0.390180
vertex -1.847759 -1.000000 -0.765366
vertex -1.662940 -1.000000 -1.111139
endloop
endfacet
facet normal 0.000000 -1.000000 0.000002
outer loop
vertex -1.662940 -1.000000 -1.111139
vertex -1.414215 -1.000000 -1.414212
vertex -1.111142 -1.000000 -1.662938
endloop
endfacet
facet normal 0.000000 -1.000000 0.000002
outer loop
vertex -1.111142 -1.000000 -1.662938
vertex -0.765369 -1.000000 -1.847758
vertex -0.390182 -1.000000 -1.961570
endloop
endfacet
facet normal 0.000000 -1.000000 0.000000
outer loop
vertex -0.390182 -1.000000 -1.961570
vertex -0.000002 -1.000000 -2.000000
vertex 0.390179 -1.000000 -1.961570
endloop
endfacet
facet normal 0.000000 -1.000000 -0.000002
outer loop
vertex 0.390179 -1.000000 -1.961570
vertex 0.765366 -1.000000 -1.847759
vertex 1.111139 -1.000000 -1.662940
endloop
endfacet
facet normal 0.000000 -1.000000 0.000002
outer loop
vertex 1.111139 -1.000000 -1.662940
vertex 1.414213 -1.000000 -1.414214
vertex 1.662939 -1.000000 -1.111141
endloop
endfacet
facet normal 0.000000 -1.000000 -0.000000
outer loop
vertex 1.662939 -1.000000 -1.111141
vertex 1.847759 -1.000000 -0.765367
vertex 1.961570 -1.000000 -0.390181
endloop
endfacet
facet normal 0.000000 -1.000000 0.000000
outer loop
vertex 1.961570 -1.000000 -0.390181
vertex 2.000000 -1.000000 0.000000
vertex 1.961571 -1.000000 0.390181
endloop
endfacet
facet normal 0.000001 -1.000000 0.000000
outer loop
vertex 1.961571 -1.000000 0.390181
vertex 1.847759 -1.000000 0.765367
vertex 1.662939 -1.000001 1.111141
endloop
endfacet
facet normal 0.000002 -1.000000 0.000006
outer loop
vertex 1.662939 -1.000001 1.111141
vertex 1.414213 -1.000000 1.414214
vertex 1.111140 -1.000001 1.662940
endloop
endfacet
facet normal -0.000000 -1.000000 0.000004
outer loop
vertex 1.111140 -1.000001 1.662940
vertex 0.765367 -1.000001 1.847759
vertex 0.390181 -1.000001 1.961571
endloop
endfacet
facet normal -0.000000 -1.000000 0.000001
outer loop
vertex 0.390181 -1.000001 1.961571
vertex -0.390187 -1.000000 1.961570
vertex -1.111144 -1.000001 1.662937
endloop
endfacet
facet normal -0.000000 -1.000000 -0.000000
outer loop
vertex -1.111144 -1.000001 1.662937
vertex -1.662941 -1.000001 1.111138
vertex -1.961571 -1.000000 0.390179
endloop
endfacet
facet normal 0.000000 -1.000000 0.000000
outer loop
vertex -1.961571 -1.000000 0.390179
vertex -1.961570 -1.000000 -0.390180
vertex -1.662940 -1.000000 -1.111139
endloop
endfacet
facet normal 0.000000 -1.000000 0.000000
outer loop
vertex -1.662940 -1.000000 -1.111139
vertex -1.111142 -1.000000 -1.662938
vertex -0.390182 -1.000000 -1.961570
endloop
endfacet
facet normal 0.000000 -1.000000 0.000000
outer loop
vertex -0.390182 -1.000000 -1.961570
vertex 0.390179 -1.000000 -1.961570
vertex 1.111139 -1.000000 -1.662940
endloop
endfacet
facet normal 0.000000 -1.000000 -0.000000
outer loop
vertex 1.111139 -1.000000 -1.662940
vertex 1.662939 -1.000000 -1.111141
vertex 1.961570 -1.000000 -0.390181
endloop
endfacet
facet normal 0.000000 -1.000000 0.000000
outer loop
vertex 1.961570 -1.000000 -0.390181
vertex 1.961571 -1.000000 0.390181
vertex 1.662939 -1.000001 1.111141
endloop
endfacet
facet normal 0.000000 -1.000000 0.000001
outer loop
vertex 1.662939 -1.000001 1.111141
vertex 1.111140 -1.000001 1.662940
vertex 0.390181 -1.000001 1.961571
endloop
endfacet
facet normal 0.000000 -1.000000 -0.000000
outer loop
vertex 0.390181 -1.000001 1.961571
vertex -1.111144 -1.000001 1.662937
vertex -1.961571 -1.000000 0.390179
endloop
endfacet
facet normal 0.000000 -1.000000 0.000000
outer loop
vertex -1.961571 -1.000000 0.390179
vertex -1.662940 -1.000000 -1.111139
vertex -0.390182 -1.000000 -1.961570
endloop
endfacet
facet normal 0.000000 -1.000000 -0.000000
outer loop
vertex -0.390182 -1.000000 -1.961570
vertex 1.111139 -1.000000 -1.662940
vertex 1.961570 -1.000000 -0.390181
endloop
endfacet
facet normal 0.000000 -1.000000 -0.000000
outer loop
vertex 1.961570 -1.000000 -0.390181
vertex 1.662939 -1.000001 1.111141
vertex 0.390181 -1.000001 1.961571
endloop
endfacet
facet normal -0.000000 -1.000000 -0.000000
outer loop
vertex 0.390181 -1.000001 1.961571
vertex -1.961571 -1.000000 0.390179
vertex -0.390182 -1.000000 -1.961570
endloop
endfacet
facet normal 0.000000 -1.000000 -0.000000
outer loop
vertex -0.390182 -1.000000 -1.961570
vertex 1.961570 -1.000000 -0.390181
vertex 0.390181 -1.000001 1.961571
endloop
endfacet
facet normal -0.146733 0.000000 0.989176
outer loop
vertex -0.390187 0.999999 1.961570
vertex -0.390187 -1.000000 1.961570
vertex -0.196041 -1.000001 1.990369
endloop
endfacet
facet normal -0.146734 -0.000000 0.989176
outer loop
vertex -0.390187 0.999999 1.961570
vertex -0.196041 -1.000001 1.990369
vertex -0.196041 0.999999 1.990369
endloop
endfacet
facet normal -0.049070 -0.000000 0.998795
outer loop
vertex -0.196041 0.999999 1.990369
vertex -0.196041 -1.000001 1.990369
vertex -0.000000 -1.000000 2.000000
endloop
endfacet
facet normal -0.049069 0.000000 0.998795
outer loop
vertex -0.196041 0.999999 1.990369
vertex -0.000000 -1.000000 2.000000
vertex -0.000000 1.000000 2.000000
endloop
endfacet
facet normal 0.000000 1.000000 -0.000016
outer loop
vertex -0.196041 0.999999 1.990369
vertex -0.000000 1.000000 2.000000
vertex 0.196034 0.999999 1.990370
endloop
endfacet
facet normal 0.000000 1.000000 0.000008
outer loop
vertex 0.196034 0.999999 1.990370
vertex 0.390181 0.999999 1.961571
vertex 0.580569 0.999999 1.913881
endloop
endfacet
facet normal 0.000000 1.000000 -0.000008
outer loop
vertex 0.580569 0.999999 1.913881
vertex 0.765367 0.999999 1.847759
vertex 0.942793 0.999999 1.763843
endloop
endfacet
facet normal 0.000000 1.000000 0.000000
outer loop
vertex 0.942793 0.999999 1.763843
vertex 1.111140 0.999999 1.662940
vertex 1.268786 0.999999 1.546021
endloop
endfacet
facet normal 0.000000 1.000000 0.000000
outer loop
vertex 1.268786 0.999999 1.546021
vertex 1.414213 0.999999 1.414214
vertex 1.546021 0.999999 1.268787
endloop
endfacet
facet normal 0.000000 1.000000 -0.000004
outer loop
vertex 1.546021 0.999999 1.268787
vertex 1.662939 0.999999 1.111141
vertex 1.763842 0.999999 0.942794
endloop
endfacet
facet normal 0.000003 1.000000 0.000000
outer loop
vertex 1.763842 0.999999 0.942794
vertex 1.847759 0.999999 0.765367
vertex 1.913881 1.000000 0.580570
endloop
endfacet
facet normal 0.000000 1.000000 -0.000001
outer loop
vertex 1.913881 1.000000 0.580570
vertex 1.961571 1.000000 0.390181
vertex 1.990369 1.000000 0.196035
endloop
endfacet
facet normal 0.000000 1.000000 0.000000
outer loop
vertex 1.990369 1.000000 0.196035
vertex 2.000000 1.000000 0.000000
vertex 1.990369 1.000000 -0.196034
endloop
endfacet
facet normal 0.000009 1.000000 0.000000
outer loop
vertex 1.990369 1.000000 -0.196034
vertex 1.961570 0.999999 -0.390181
vertex 1.913880 1.000000 -0.580569
endloop
endfacet
facet normal -0.000003 1.000000 0.000004
outer loop
vertex 1.913880 1.000000 -0.580569
vertex 1.847759 1.000000 -0.765367
vertex 1.763842 1.000000 -0.942794
endloop
endfacet
facet normal -0.000005 1.000000 0.000000
outer loop
vertex 1.763842 1.000000 -0.942794
vertex 1.662939 1.000000 -1.111141
vertex 1.546020 1.000000 -1.268787
endloop
endfacet
facet normal 0.000000 1.000000 0.000000
outer loop
vertex 1.546020 1.000000 -1.268787
vertex 1.414213 1.000000 -1.414214
vertex 1.268786 1.000000 -1.546021
endloop
endfacet
facet normal -0.000004 1.000000 0.000008
outer loop
vertex 1.268786 1.000000 -1.546021
vertex 1.111139 1.000000 -1.662939
vertex 0.942792 1.000000 -1.763843
endloop
endfacet
facet normal 0.000001 1.000000 -0.000008
outer loop
vertex 0.942792 1.000000 -1.763843
vertex 0.765366 1.000000 -1.847759
vertex 0.580568 1.000000 -1.913881
endloop
endfacet
facet normal 0.000002 1.000000 -0.000008
outer loop
vertex 0.580568 1.000000 -1.913881
vertex 0.390179 1.000000 -1.961570
vertex 0.196033 1.000000 -1.990369
endloop
endfacet
facet normal -0.000001 1.000000 -0.000008
outer loop
vertex 0.196033 1.000000 -1.990369
vertex -0.000002 1.000000 -2.000000
vertex -0.196036 1.000000 -1.990369
endloop
endfacet
facet normal -0.000002 1.000000 -0.000016
outer loop
vertex -0.196036 1.000000 -1.990369
vertex -0.390182 1.000000 -1.961570
vertex -0.580571 1.000000 -1.913880
endloop
endfacet
facet normal -0.000005 1.000000 -0.000016
outer loop
vertex -0.580571 1.000000 -1.913880
vertex -0.765369 1.000000 -1.847758
vertex -0.942795 1.000000 -1.763841
endloop
endfacet
facet normal 0.000000 1.000000 0.000000
outer loop
vertex -0.942795 1.000000 -1.763841
vertex -1.111142 1.000000 -1.662938
vertex -1.268788 1.000000 -1.546019
endloop
endfacet
facet normal 0.000022 1.000000 0.000024
outer loop
vertex -1.268788 1.000000 -1.546019
vertex -1.414215 1.000000 -1.414212
vertex -1.546022 0.999999 -1.268785
endloop
endfacet
facet normal 0.000005 1.000000 0.000008
outer loop
vertex -1.546022 0.999999 -1.268785
vertex -1.662940 1.000000 -1.111139
vertex -1.763843 1.000000 -0.942792
endloop
endfacet
facet normal 0.000009 1.000000 0.000004
outer loop
vertex -1.763843 1.000000 -0.942792
vertex -1.847759 1.000000 -0.765366
vertex -1.913881 0.999999 -0.580569
endloop
endfacet
facet normal 0.000009 1.000000 0.000001
outer loop
vertex -1.913881 0.999999 -0.580569
vertex -1.961570 1.000000 -0.390180
vertex -1.990369 1.000000 -0.196034
endloop
endfacet
facet normal 0.000000 1.000000 0.000000
outer loop
vertex -1.990369 1.000000 -0.196034
vertex -2.000000 1.000000 -0.000000
vertex -1.990369 1.000000 0.196033
endloop
endfacet
facet normal 0.000000 1.000000 0.000000
outer loop
vertex -1.990369 1.000000 0.196033
vertex -1.961571 1.000000 0.390179
vertex -1.913881 1.000000 0.580568
endloop
endfacet
facet normal -0.000003 1.000000 0.000000
outer loop
vertex -1.913881 1.000000 0.580568
vertex -1.847760 0.999999 0.765365
vertex -1.763844 0.999999 0.942791
endloop
endfacet
facet normal 0.000000 1.000000 -0.000004
outer loop
vertex -1.763844 0.999999 0.942791
vertex -1.662941 0.999999 1.111138
vertex -1.546023 0.999999 1.268784
endloop
endfacet
facet normal 0.000000 1.000000 0.000000
outer loop
vertex -1.546023 0.999999 1.268784
vertex -1.414216 0.999999 1.414211
vertex -1.268790 0.999999 1.546019
endloop
endfacet
facet normal 0.000000 1.000000 0.000000
outer loop
vertex -1.268790 0.999999 1.546019
vertex -1.111144 0.999999 1.662937
vertex -0.942798 0.999999 1.763841
endloop
endfacet
facet normal 0.000000 1.000000 -0.000008
outer loop
vertex -0.942798 0.999999 1.763841
vertex -0.765372 0.999999 1.847757
vertex -0.580575 0.999999 1.913879
endloop
endfacet
facet normal 0.000000 1.000000 0.000008
outer loop
vertex -0.580575 0.999999 1.913879
vertex -0.390187 0.999999 1.961570
vertex -0.196041 0.999999 1.990369
endloop
endfacet
facet normal 0.000000 1.000000 -0.000002
outer loop
vertex -0.196041 0.999999 1.990369
vertex 0.196034 0.999999 1.990370
vertex 0.580569 0.999999 1.913881
endloop
endfacet
facet normal 0.000000 1.000000 0.000002
outer loop
vertex 0.580569 0.999999 1.913881
vertex 0.942793 0.999999 1.763843
vertex 1.268786 0.999999 1.546021
endloop
endfacet
facet normal 0.000000 1.000000 0.000000
outer loop
vertex 1.268786 0.999999 1.546021
vertex 1.546021 0.999999 1.268787
vertex 1.763842 0.999999 0.942794
endloop
endfacet
facet normal -0.000001 1.000000 0.000000
outer loop
vertex 1.763842 0.999999 0.942794
vertex 1.913881 1.000000 0.580570
vertex 1.990369 1.000000 0.196035
endloop
endfacet
facet normal 0.000001 1.000000 0.000000
outer loop
vertex 1.990369 1.000000 0.196035
vertex 1.990369 1.000000 -0.196034
vertex 1.913880 1.000000 -0.580569
endloop
endfacet
facet normal 0.000002 1.000000 -0.000003
outer loop
vertex 1.913880 1.000000 -0.580569
vertex 1.763842 1.000000 -0.942794
vertex 1.546020 1.000000 -1.268787
endloop
endfacet
facet normal -0.000001 1.000000 0.000000
outer loop
vertex 1.546020 1.000000 -1.268787
vertex 1.268786 1.000000 -1.546021
vertex 0.942792 1.000000 -1.763843
endloop
endfacet
facet normal -0.000001 1.000000 0.000002
outer loop
vertex 0.942792 1.000000 -1.763843
vertex 0.580568 1.000000 -1.913881
vertex 0.196033 1.000000 -1.990369
endloop
endfacet
facet normal -0.000001 1.000000 -0.000008
outer loop
vertex 0.196033 1.000000 -1.990369
vertex -0.196036 1.000000 -1.990369
vertex -0.580571 1.000000 -1.913880
endloop
endfacet
facet normal -0.000002 1.000000 -0.000002
outer loop
vertex -0.580571 1.000000 -1.913880
vertex -0.942795 1.000000 -1.763841
vertex -1.268788 1.000000 -1.546019
endloop
endfacet
facet normal -0.000002 1.000000 -0.000002
outer loop
vertex -1.268788 1.000000 -1.546019
vertex -1.546022 0.999999 -1.268785
vertex -1.763843 1.000000 -0.942792
endloop
endfacet
facet normal -0.000001 1.000000 -0.000000
outer loop
vertex -1.763843 1.000000 -0.942792
vertex -1.913881 0.999999 -0.580569
vertex -1.990369 1.000000 -0.196034
endloop
endfacet
facet normal 0.000000 1.000000 0.000000
outer loop
vertex -1.990369 1.000000 -0.196034
vertex -1.990369 1.000000 0.196033
vertex -1.913881 1.000000 0.580568
endloop
endfacet
facet normal -0.000001 1.000000 0.000001
outer loop
vertex -1.913881 1.000000 0.580568
vertex -1.763844 0.999999 0.942791
vertex -1.546023 0.999999 1.268784
endloop
endfacet
facet normal 0.000000 1.000000 0.000002
outer loop
vertex -1.546023 0.999999 1.268784
vertex -1.268790 0.999999 1.546019
vertex -0.942798 0.999999 1.763841
endloop
endfacet
facet normal 0.000000 1.000000 0.000000
outer loop
vertex -0.942798 0.999999 1.763841
vertex -0.580575 0.999999 1.913879
vertex -0.196041 0.999999 1.990369
endloop
endfacet
facet normal 0.000000 1.000000 -0.000001
outer loop
vertex -0.196041 0.999999 1.990369
vertex 0.580569 0.999999 1.913881
vertex 1.268786 0.999999 1.546021
endloop
endfacet
facet normal 0.000000 1.000000 0.000000
outer loop
vertex 1.268786 0.999999 1.546021
vertex 1.763842 0.999999 0.942794
vertex 1.990369 1.000000 0.196035
endloop
endfacet
facet normal 0.000000 1.000000 0.000000
outer loop
vertex 1.990369 1.000000 0.196035
vertex 1.913880 1.000000 -0.580569
vertex 1.546020 1.000000 -1.268787
endloop
endfacet
facet normal 0.000001 1.000000 -0.000001
outer loop
vertex 1.546020 1.000000 -1.268787
vertex 0.942792 1.000000 -1.763843
vertex 0.196033 1.000000 -1.990369
endloop
endfacet
facet normal 0.000000 1.000000 0.000001
outer loop
vertex 0.196033 1.000000 -1.990369
vertex -0.580571 1.000000 -1.913880
vertex -1.268788 1.000000 -1.546019
endloop
endfacet
facet normal 0.000000 1.000000 0.000000
outer loop
vertex -1.268788 1.000000 -1.546019
vertex -1.763843 1.000000 -0.942792
vertex -1.990369 1.000000 -0.196034
endloop
endfacet
facet normal 0.000000 1.000000 0.000000
outer loop
vertex -1.990369 1.000000 -0.196034
vertex -1.913881 1.000000 0.580568
vertex -1.546023 0.999999 1.268784
endloop
endfacet
facet normal 0.000000 1.000000 0.000000
outer loop
vertex -1.546023 0.999999 1.268784
vertex -0.942798 0.999999 1.763841
vertex -0.196041 0.999999 1.990369
endloop
endfacet
facet normal 0.000000 1.000000 0.000000
outer loop
vertex -0.196041 0.999999 1.990369
vertex 1.268786 0.999999 1.546021
vertex 1.990369 1.000000 0.196035
endloop
endfacet
facet normal 0.000000 1.000000 0.000000
outer loop
vertex 1.990369 1.000000 0.196035
vertex 1.546020 1.000000 -1.268787
vertex 0.196033 1.000000 -1.990369
endloop
endfacet
facet normal -0.000000 1.000000 -0.000000
outer loop
vertex 0.196033 1.000000 -1.990369
vertex -1.268788 1.000000 -1.546019
vertex -1.990369 1.000000 -0.196034
endloop
endfacet
facet normal -0.000000 1.000000 0.000000
outer loop
vertex -1.990369 1.000000 -0.196034
vertex -1.546023 0.999999 1.268784
vertex -0.196041 0.999999 1.990369
endloop
endfacet
facet normal 0.000000 1.000000 0.000000
outer loop
vertex -0.196041 0.999999 1.990369
vertex 1.990369 1.000000 0.196035
vertex 0.196033 1.000000 -1.990369
endloop
endfacet
facet normal -0.000000 1.000000 0.000000
outer loop
vertex 0.196033 1.000000 -1.990369
vertex -1.990369 1.000000 -0.196034
vertex -0.196041 0.999999 1.990369
endloop
endfacet
endsolid Exported from Blender-2.82 (sub 7)
